<?xml version="1.0" encoding="UTF-8"?>
<!DOCTYPE svg PUBLIC "-//W3C//DTD SVG 1.1//EN" "http://www.w3.org/Graphics/SVG/1.1/DTD/svg11.dtd">
<!-- Creator: CorelDRAW (Evaluation Version) -->
<svg xmlns="http://www.w3.org/2000/svg" xml:space="preserve" width="9.87111in" height="4.13196in" version="1.1" style="shape-rendering:geometricPrecision; text-rendering:geometricPrecision; image-rendering:optimizeQuality; fill-rule:evenodd; clip-rule:evenodd"
viewBox="0 0 4000.86 1674.73"
 xmlns:xlink="http://www.w3.org/1999/xlink"
 xmlns:xodm="http://www.corel.com/coreldraw/odm/2003">
 <defs>
  <style type="text/css">
   <![CDATA[
    .str0 {stroke:#FEFEFE;stroke-width:5.63;stroke-miterlimit:2.61313}
    .str1 {stroke:#FEFEFE;stroke-width:2.81;stroke-miterlimit:2.61313}
    .fil0 {fill:#CB7246}
    .fil1 {fill:#E1B521}
   ]]>
  </style>
   <clipPath id="id0">
    <path d="M2023.61 2.55l-1.33 496.67 -281.96 572.5 -411.72 208.96 -1324.36 -1.16 0 -1276.96 2019.37 0z"/>
   </clipPath>
 </defs>
 <g id="Layer_x0020_1">
  <metadata id="CorelCorpID_0Corel-Layer"/>
  <g style="clip-path:url(#id0)">
   <image x="2.81" y="-67.15" width="2020.79" height="1346.67" xlink:href="calendar-shape_Images\calendar-shape_ImgID1.png"/>
  </g>
  <g id="_1630341443744">
   <path class="fil0 str0" d="M2.82 1428.54l1.41 245.76c27.49,-177.33 162.55,-299.68 335.08,-303.61 194.03,-4.41 448.65,94.61 720.53,99.75 140.15,2.65 273.98,-10.92 372.04,-46.66 200.57,-73.11 307.09,-168.77 401.52,-297.12 181.87,-247.21 203.22,-542.57 257.84,-685.82 62.01,-162.65 173.36,-160.81 232.48,-118.63 15.92,11.36 36.47,46.8 20.48,89.13 28.11,-5.87 112.11,-49.7 74.29,-140.29 181.39,-1.65 184.49,-269.64 -70.37,-268.23l-209.12 0c-96.32,135.26 -159.35,315.07 -192.44,458.64 -60.79,274.02 -111.96,542.14 -333.4,723.18 -29.19,23.86 -60.9,46.72 -96.35,67.47 -111.11,65.03 -215.35,90.94 -319.02,105.29 -57.54,7.96 -112.46,8.39 -167.62,6.02 -154.55,-6.64 -299.99,-43.3 -435.55,-72.15 -149.1,-31.73 -300.34,-54.66 -416.04,-9.34 -105.47,45.85 -153.48,125.36 -175.76,146.62z"/>
   <path class="fil1 str1" d="M4.23 1283.84l-2.48 143.54c28.36,-32.45 61,-93.83 168.22,-144.61 124.69,-56.01 278.77,-24.24 440.11,9.05 130.81,26.99 272.08,62.51 417.86,68.28 46.69,1.85 95.49,2.16 145.69,-3.2 103.8,-11.07 218.02,-38.77 340.33,-107.67 198.33,-116.08 290.8,-284.7 350.39,-474.16 31.83,-101.21 55.08,-208.02 79.79,-315.26 33.08,-143.57 95.03,-322.89 194.86,-457l-114.79 0c-147.31,207.45 -176.55,447.42 -253.83,733.55 -40.48,149.89 -124.02,301.46 -257.23,396.9 -105.79,75.79 -248.28,116.35 -387.21,125.27 -309.37,19.85 -589.42,-118.97 -831.05,-105.8 -170.21,2.4 -271.2,105.72 -290.66,131.11z"/>
   <rect class="fil0 str0" x="2169.06" y="2.81" width="1828.99" height="268.23"/>
   <rect class="fil0" x="2139" y="5.85" width="276.41" height="272.53" rx="0.95" ry="6.56"/>
  </g>
 </g>
</svg>
