<svg width="923" height="217" viewBox="0 0 923 217" fill="none" xmlns="http://www.w3.org/2000/svg">
<g clip-path="url(#clip0_160_29)">
<path fill-rule="evenodd" clip-rule="evenodd" d="M73.9092 8.323C76.4727 7.51469 79.0797 6.8515 81.7179 6.33656C86.2377 5.32311 90.8117 4.56841 95.4175 4.07614L103.089 3.80214C104.048 3.80214 104.048 3.59665 104.973 3.59665C105.898 3.59665 106.035 3.7679 106.651 3.7679C107.23 3.68006 107.819 3.68006 108.398 3.7679C110.337 3.87107 112.281 3.87107 114.22 3.7679C115.145 3.7679 115.145 3.7679 116.07 3.7679C119.586 4.03927 123.085 4.50808 126.55 5.1721L133.4 6.57631C134.119 6.7818 134.153 6.8503 134.872 7.02154C135.442 7.09802 136.003 7.22407 136.55 7.39828L141.037 8.76824C142.612 9.14497 143.743 9.9327 145.421 10.4122L149.633 12.0561C150.147 12.0561 149.634 12.0561 150.284 12.3644L151.038 12.7069C152.887 13.4946 154.463 14.5906 156.415 15.4468L160.079 17.6387C160.593 17.9469 160.867 18.2209 161.312 18.4607L161.929 18.8032L172.204 25.6529C172.599 25.9941 173.068 26.2401 173.573 26.3722C173.779 25.4475 173.265 25.2077 172.204 24.3515L167.854 21.1321C167.033 20.6633 166.254 20.1248 165.525 19.5224C165.185 19.2123 164.79 18.9684 164.361 18.8032H164.121L163.744 18.5977L155.593 13.9398C154.36 13.3576 153.127 12.5356 151.825 12.0561L151.175 11.7479L149.257 10.8232C149.038 10.7192 148.808 10.6389 148.572 10.5834L146.551 9.76145C145.9 9.52171 145.729 9.38472 145.113 9.14497L129.803 4.48712L125.762 3.80214C124.698 3.605 123.623 3.47914 122.543 3.42541C121.964 3.34051 121.391 3.21462 120.83 3.04867C120.261 3.11622 119.687 3.11622 119.118 3.04867L114.083 2.0897C111.516 1.95087 108.944 1.95087 106.377 2.0897C105.692 2.0897 105.966 2.39794 104.836 2.43219C103.682 2.3798 102.526 2.50689 101.411 2.80893C100.829 2.80893 100.11 2.80893 99.5273 2.80893C98.9451 2.80893 98.8766 3.04867 98.2259 3.11717C97.5752 3.18566 97.0957 3.11717 96.5477 3.11717C95.9664 3.16393 95.3823 3.16393 94.801 3.11717C93.5338 3.11717 93.842 3.28841 93.0543 3.42541C91.6158 3.73365 89.6294 3.42541 87.9512 3.97339C87.3472 4.02406 86.74 4.02406 86.136 3.97339C85.2113 3.97339 85.5538 4.28163 84.6291 4.35013L78.978 4.55562L79.9027 3.97339C80.6615 3.8369 81.4278 3.74541 82.1974 3.6994C82.7454 3.52815 82.8481 3.39116 83.3961 3.21991L86.6155 2.43219L90.7254 1.47322C91.5131 1.26773 92.6776 1.23348 93.568 1.09648L96.4449 0.685494C97.1299 0.685494 97.8491 0.685494 98.5341 0.514249L99.3218 0.206009C98.5384 0.0123973 97.7294 -0.0569457 96.9244 0.000515464C95.897 0.000515464 95.897 0.343005 94.8352 0.411502C94.0595 0.37124 93.2821 0.37124 92.5063 0.411502L89.3897 0.993734C88.6019 0.993734 89.1842 1.16498 88.3964 1.30197L82.1974 2.46644H81.7522H81.3412L78.3615 3.42541C77.7793 3.42541 78.019 3.42541 77.471 3.66515L74.9709 4.38438L68.2238 6.8503C66.2716 7.74077 63.9427 8.35725 62.059 9.35047L60.4151 10.2752L56.9902 11.8849C54.8053 12.8642 52.6986 14.0091 50.6884 15.3098L49.9349 15.6865C46.3372 17.9661 42.9039 20.4954 39.6602 23.2555L39.4547 23.461C38.8383 24.0775 38.6328 23.9748 38.0505 24.5227L34.2489 28.0846C34.1017 28.3195 33.9294 28.5376 33.7352 28.7353C33.3584 29.1463 33.3927 28.9751 33.016 29.3176L30.002 32.3657C29.7524 32.5472 29.5328 32.7668 29.3513 33.0165C29.0074 33.4882 28.6045 33.9141 28.1526 34.2837C27.3649 34.9002 27.6731 35.0371 27.0909 35.6536L25.8579 36.8866C25.4127 37.4688 25.2072 37.6743 24.7277 38.2223L21.9878 41.6472C21.6111 42.1952 21.9878 41.8869 21.4741 42.4349C20.9603 42.9829 21.4741 42.4349 20.8918 42.9829L18.3917 46.716C18.2673 46.9517 18.1301 47.1804 17.9807 47.401C16.7477 49.1477 15.7887 51.0999 14.5558 52.7781C14.1882 53.2538 13.8779 53.7711 13.6311 54.3193L11.1309 59.2511C10.8041 59.7646 10.5178 60.3028 10.2747 60.8608L4.04137 77.4373C4.04137 77.6085 4.04137 77.677 4.04137 77.8483L3.42489 79.8347C3.35236 80.1856 3.24922 80.5294 3.11665 80.8622C3.11665 81.0677 2.94541 81.6157 2.91116 81.7869L2.67142 82.8486C2.67142 83.3281 2.67142 82.8486 2.67142 83.2939L2.26043 84.7666C2.26043 85.5543 2.26043 86.1708 2.02069 86.9927L0.582232 95.4865C0.582232 96.6509 0.273991 96.6167 0.205493 97.5414L0 112.097C0 113.125 0.205493 113.296 0.205493 114.323C0.205493 115.351 0.205493 116.139 0.205493 116.755C0.205493 117.372 0.582232 117.372 0.582232 118.878C0.614505 119.586 0.729449 120.287 0.924721 120.968C0.924721 121.344 0.924721 121.721 0.924721 122.064C0.924721 123.057 0.924721 122.338 1.23296 123.091C1.5412 123.845 1.23296 124.769 1.4727 125.283C1.64908 125.96 1.78631 126.646 1.88369 127.338C1.92221 128.063 2.01378 128.784 2.15768 129.496C2.15768 129.496 2.15768 129.872 2.15768 129.941L3.63038 136.003L4.24687 137.852L5.10309 140.798C5.47983 142.442 6.1648 143.709 6.61004 145.319C7.02587 146.486 7.50609 147.629 8.04849 148.744L9.17871 151.381C10.6318 154.784 12.3021 158.09 14.179 161.279L19.1794 169.293C19.2995 169.536 19.4618 169.757 19.6589 169.944C19.7251 170.056 19.8057 170.16 19.8986 170.252C20.0291 170.387 20.144 170.536 20.2411 170.697L23.392 174.875L23.6317 175.218L40.4822 192.342C41.0644 192.856 41.3384 192.925 41.8864 193.37L44.5921 195.562C45.1088 195.853 45.6013 196.185 46.0648 196.555L53.5311 201.384C54.5382 202.021 55.5786 202.604 56.6477 203.131C57.2642 203.439 57.6409 203.747 58.2232 204.021L63.1892 206.419C63.4595 206.501 63.7229 206.604 63.977 206.727L65.1072 207.309C66.2876 207.87 67.4998 208.362 68.7376 208.782L77.471 211.727L78.3273 212.001H78.7382C80.6219 212.618 82.8139 212.96 84.7661 213.508L88.3964 214.193L89.4582 214.467L93.7735 215.049C94.5612 215.049 95.3832 215.049 96.1024 215.049L98.2259 215.358C99.7671 215.358 101.445 215.563 102.781 215.7C106.734 215.792 110.69 215.678 114.631 215.358C115.053 215.392 115.477 215.392 115.898 215.358C116.378 215.358 116.344 215.118 116.926 215.049C117.508 214.981 118.57 215.049 119.22 215.049L123.467 214.433C124.168 214.28 124.877 214.166 125.591 214.09L134.735 211.899L135.317 211.727L136.139 211.419L139.564 210.494C141.243 209.844 142.989 209.467 144.599 208.713L149.154 206.864C150.353 206.179 151.723 205.768 152.99 205.049C154.257 204.329 155.182 204.09 156.244 203.405L160.97 201.007C161.792 200.665 162.203 200.185 162.956 199.809L164.498 198.85L169.772 195.219L170.183 194.877L170.971 194.329L182.41 184.054L182.684 183.746L183.643 182.821L184.054 182.479C184.499 182.068 184.876 181.691 185.287 181.246L185.526 180.938L192.068 173.129C193.13 171.519 194.431 170.012 195.493 168.334L196.965 166.039C198.383 163.748 199.675 161.381 200.836 158.95L202.069 156.45C202.343 155.867 202.514 155.285 202.822 154.737L204.295 151.312C204.5 150.696 204.843 150.285 205.048 149.634C205.254 148.983 205.048 149.052 205.356 148.607L205.665 147.613C206.213 145.798 207.103 144.188 207.514 142.133L208.918 137.476C209.114 136.823 209.274 136.16 209.398 135.489C209.672 133.4 210.391 131.619 210.699 129.461C210.939 127.817 211.419 121.481 211.693 120.625C211.882 118.151 211.882 115.667 211.693 113.193H210.939C211.419 109.315 211.419 105.392 210.939 101.514H210.562C210.324 102.883 210.198 104.269 210.186 105.658C210.186 106.412 209.877 106.789 209.843 107.542C209.809 108.296 209.843 109.152 209.843 109.837C209.843 110.522 209.843 110.59 209.843 110.933C209.843 111.892 209.843 111.138 209.603 111.823C209.479 112.571 209.411 113.326 209.398 114.084C209.398 115.043 209.124 117.509 208.507 117.92C208.492 117.008 208.596 116.099 208.816 115.214L209.09 109.597C209.066 108.656 209.135 107.716 209.295 106.789C209.521 103.836 209.521 100.871 209.295 97.9181C209.233 97.5125 209.141 97.1119 209.021 96.7194C208.781 95.3837 209.021 93.7055 208.713 92.3013C208.713 91.7191 208.473 91.9246 208.405 91.1026C208.196 88.5596 207.559 86.0701 206.521 83.7391C205.802 82.3006 204.226 76.8893 202.925 76.5811C203.051 77.3706 203.306 78.1342 203.678 78.8415L205.493 84.9721C205.493 85.6228 205.767 85.8968 205.87 86.2735C205.973 86.6503 205.87 88.1572 206.213 88.9792L207.035 94.5275C207.035 95.829 207.411 96.0002 207.411 97.3702H206.487C206.487 98.5004 206.692 99.2196 206.487 100.555C206.487 105.179 206.487 109.631 206.247 114.255C206.247 115.18 206.247 114.803 206.247 115.591C206.247 116.378 205.939 116.036 205.939 117.166C205.788 120.176 205.375 123.167 204.706 126.105L204.192 129.016C204.192 129.872 204.192 129.016 204.192 129.598L203.678 131.551C203.507 132.133 203.404 132.201 203.267 132.818L202.891 134.359L202.651 135.626C202.558 136.069 202.432 136.504 202.274 136.928C202.011 137.837 201.691 138.73 201.315 139.599C201.075 140.25 201.315 140.284 200.973 140.935V141.209L199.842 144.017C199.568 144.462 199.842 144.291 199.363 144.497L201.247 138.983L202.274 135.284C202.363 134.717 202.489 134.156 202.651 133.605L204.877 121.516C204.877 120.762 204.877 120.317 204.877 119.529C204.877 118.741 205.117 118.262 205.185 117.783C205.185 116.618 205.185 115.111 205.185 114.015C205.475 110.07 205.475 106.11 205.185 102.165C205.15 101.609 205.058 101.058 204.911 100.521L204.603 96.7194C204.603 96.0345 204.295 95.6235 204.261 94.9727L203.952 93.1918C203.952 92.8151 203.747 91.7191 203.678 91.3766L202.445 85.657C201.932 83.9103 201.452 81.4444 200.87 79.869C200.288 78.2935 198.301 72.5739 196.931 69.5943L193.267 62.128L193.061 61.7513L192.821 61.6485L192.616 61.3061L185.766 50.3464C185.492 49.8669 185.766 50.3464 185.355 49.7984C184.191 48.634 182.273 45.2776 180.595 45.1406C180.595 45.9968 181.827 46.6818 182.341 47.538L182.855 48.1545L190.903 60.3128C191.127 60.7623 191.378 61.197 191.657 61.6143C191.954 62.0979 192.217 62.6015 192.445 63.1213C192.65 63.5665 192.821 64.0117 193.095 64.5255C193.855 66.0225 194.419 67.611 194.774 69.2518C194.841 69.4836 194.945 69.7032 195.082 69.9025L195.87 72.4712C196.349 74.1152 197.239 75.4166 197.685 77.0948L200.288 87.0955C200.527 87.6777 200.288 87.0955 200.527 88.0202L200.904 90.8629C201.033 91.5533 201.033 92.2616 200.904 92.952L200.014 89.6984L199.294 89.0477C198.937 90.8519 198.867 92.7015 199.089 94.5275L197.513 89.4929L197.137 88.1915C197.094 87.9259 197.037 87.663 196.965 87.4037L195.493 82.1979L193.986 77.8483C193.986 77.4373 193.986 77.54 193.712 77.1633L192.479 74.0467C192.381 73.7824 192.255 73.5297 192.102 73.2932L190.561 70.3135C190.253 69.697 190.116 69.3546 189.328 69.2861C189.502 70.3129 189.862 71.2995 190.39 72.1972C190.39 72.437 190.39 72.7109 190.561 72.9507C190.628 73.2368 190.732 73.513 190.869 73.7727C190.869 73.7727 191.04 74.2521 191.143 74.4576L192.582 78.2935C192.821 78.8758 192.958 79.1155 193.232 79.732C193.839 81.2337 194.287 82.7948 194.568 84.3898C194.774 85.246 194.979 85.3145 195.116 85.931C195.253 86.5475 195.116 87.0612 195.459 87.6777C195.835 89.1504 195.87 90.6574 196.178 92.0616C196.178 92.4383 196.178 92.5411 196.418 92.9178C196.48 93.5039 196.618 94.0795 196.829 94.6302C197.065 95.7597 197.226 96.904 197.308 98.0551L197.719 101.788C198.113 107.044 198.113 112.321 197.719 117.577L197.411 123.091C197.173 124.22 197.013 125.365 196.931 126.516C196.931 127.132 196.555 127.475 196.452 128.091L192.136 144.531L186.28 157.169C185.629 158.23 185.15 159.429 184.43 160.388L179.122 168.3C178.574 169.053 177.786 170.492 176.861 170.56L177.752 168.813C177.897 168.645 178.023 168.461 178.129 168.265L181.759 161.416C181.759 161.176 181.759 160.936 181.759 160.662C180.937 160.662 180.56 161.69 180.115 162.443C179.67 163.197 179.19 163.573 178.677 164.395C178.163 165.217 174.464 169.396 173.299 170.903L172.957 171.314V171.519L170.799 173.677L159.052 184.191C158.367 184.773 157.477 185.184 156.894 185.801C156.312 186.417 156.689 186.143 155.97 186.589C155.621 186.825 155.241 187.01 154.839 187.137C155.045 186.486 155.559 186.452 155.764 185.595L150.798 188.404C150.52 188.461 150.253 188.565 150.01 188.712C149.115 189.307 148.163 189.812 147.168 190.219C145.626 190.698 144.633 191.349 142.475 192.103C140.867 192.811 139.221 193.428 137.544 193.952C137.064 193.952 136.585 194.329 136.002 194.534L129.153 196.589C127.474 197.137 125.248 197.377 123.639 197.856L118.09 198.918C117.394 198.955 116.697 198.955 116.001 198.918C114.734 198.918 113.193 198.918 112.028 199.295C109.12 199.485 106.203 199.485 103.295 199.295C102.541 199.295 102.165 199.021 101.377 198.918C100.741 198.916 100.113 198.788 99.5273 198.541C99.7328 197.685 100.795 197.24 101.582 197H101.993C107.576 194.877 108.672 196.247 113.158 195.562C113.831 195.51 114.507 195.51 115.179 195.562L119.118 195.356C120.007 195.315 120.89 195.189 121.755 194.98L129.187 193.918C131.709 193.401 134.201 192.75 136.653 191.966L152.305 184.773L152.647 184.568C155.02 183.188 157.307 181.667 159.497 180.013L159.84 179.773L162.545 177.547C162.991 177.136 163.196 176.999 163.676 176.622C164.155 176.245 164.258 176.04 164.737 175.629L172.717 167.546L173.984 166.176C174.943 164.635 176.553 163.094 177.581 161.45C177.889 160.936 178.163 160.662 178.505 160.148L178.882 159.6C179.05 159.374 179.199 159.133 179.327 158.881L181.519 155.285C182.033 154.463 182.547 153.436 182.992 152.614L184.396 149.668C185.608 147.311 186.627 144.86 187.444 142.339C187.498 142.102 187.578 141.872 187.684 141.654L188.198 140.079C188.78 138.503 189.122 136.654 189.602 135.078L190.664 130.831C190.664 130.42 190.869 129.359 190.903 129.016C190.965 128.425 191.079 127.84 191.246 127.269C191.246 126.584 191.246 126.002 191.246 125.317C191.515 124.715 191.632 124.057 191.588 123.399C191.844 120.793 191.913 118.172 191.794 115.556L190.801 106.172C190.754 105.563 190.674 104.957 190.561 104.357C190.502 104.111 190.422 103.87 190.321 103.638C190.173 102.733 189.92 101.848 189.568 101.001C189.02 99.9388 188.438 97.5757 186.417 100.11C185.69 101.162 185.124 102.316 184.739 103.535L184.43 104.357C184.259 104.905 184.156 105.487 184.019 106.001L181.999 114.186C181.985 114.266 181.985 114.347 181.999 114.426L179.704 120.454C178.77 122.912 177.624 125.284 176.279 127.543L172.854 132.681L168.299 138.024L162.34 145.079L160.97 144.531C158.744 143.092 158.333 143.538 156.004 143.058C153.442 142.919 150.872 143.033 148.332 143.401C148.332 141.757 147.887 140.695 148.675 139.188C149.054 138.695 149.312 138.121 149.428 137.51V132.784L148.332 126.345C147.987 125.098 147.564 123.874 147.065 122.68C146.182 120.038 145.484 117.337 144.976 114.597L143.845 110.522C143.845 109.837 143.571 109.323 143.332 108.604L140.9 98.5689C140.594 97.1273 140.433 95.6587 140.421 94.185L139.907 91.1369C139.622 89.483 139.017 87.9008 138.126 86.479L137.818 86.0338C137.033 84.9913 136.056 84.1079 134.941 83.4309C133.982 82.7459 133.194 82.8486 132.92 81.5129C132.235 81.5129 132.372 81.5129 131.927 81.3417L131.31 80.8622C131.071 80.8622 131.31 80.8622 130.865 80.8622L128.125 79.8347C127.303 79.8347 126.755 79.8347 126.036 79.6635C125.317 79.4922 125.043 78.91 124.666 78.773C124.289 78.636 123.33 78.773 122.577 78.5675C121.823 78.362 121.892 77.9853 121.275 77.6085C120.659 77.2318 120.282 77.6085 119.46 77.6085C118.99 76.6733 118.39 75.8086 117.679 75.0399C115.967 72.6082 115.933 74.7316 115.076 71.9917C114.454 69.1334 114.829 66.1481 116.138 63.5322C116.549 62.265 117.234 61.0321 117.577 59.6964L119.768 56.2715C120.427 55.2319 120.859 54.0648 121.036 52.8466C121.193 51.4811 121.193 50.1022 121.036 48.7367C120.693 47.6065 120.659 48.3942 120.59 46.8873C120.59 45.9968 120.316 45.6886 120.248 44.9693C120.248 43.6679 120.248 41.8869 120.042 40.654C119.856 38.2431 118.825 35.9752 117.131 34.2494L114.734 31.9547C114.083 31.4068 115.179 32.2972 114.528 31.7493L112.405 30.482C111.287 29.7209 109.987 29.2717 108.638 29.1806C107.326 28.8699 105.976 28.7545 104.63 28.8381L100.829 29.5231C98.7649 30.2949 96.8694 31.4578 95.2462 32.948C94.7667 33.3932 94.7325 33.6672 94.3215 34.0782C93.9105 34.4892 94.3215 34.0782 94.0133 34.3522C92.5895 36.0205 91.7691 38.1198 91.6843 40.3115C91.6239 41.018 91.6239 41.7284 91.6843 42.4349C91.6095 44.302 91.3105 46.1533 90.7939 47.949L90.5884 48.4627C90.2116 49.3189 90.7939 47.7435 90.5884 48.7367C90.5884 49.0449 90.5884 48.4627 90.5884 49.1477C90.3757 50.5553 90.4692 51.9921 90.8624 53.3603C91.9926 56.7852 93.6023 57.0592 93.9105 58.2579L95.897 64.8337C96.6977 66.6391 96.9479 68.6406 96.6162 70.5875C96.3608 71.7701 95.9701 72.9193 95.4517 74.0124C95.1719 73.8259 94.8574 73.6978 94.527 73.6357C94.253 74.0124 94.0475 74.3549 93.7393 74.7316L93.3625 75.1084L92.2666 76.2728L92.0268 76.6153L91.0336 77.677C90.4689 78.43 89.8001 79.0988 89.0472 79.6635L82.7111 81.0677C79.2608 81.5952 76.0755 83.23 73.6352 85.7255C73.1119 86.5038 72.6863 87.3435 72.3679 88.2257C72.3679 88.4997 72.1625 88.5339 72.0255 88.8422L69.7308 96.5482C69.714 96.7998 69.6439 97.0449 69.5253 97.2674L67.2306 106.686C67.1344 107.254 66.997 107.815 66.8196 108.364L65.3469 114.597C65.1072 115.625 64.9359 118.022 64.5935 118.741C64.0462 120.587 63.6679 122.478 63.4632 124.393C63.0027 126.11 62.8519 127.896 63.018 129.667C63.2577 131.14 65.5524 132.921 66.4429 134.119L70.2788 138.161L77.1286 143.846L77.4368 144.12L81.2384 147.545C81.4467 147.742 81.5696 148.012 81.5809 148.298C81.1945 148.136 80.8172 147.953 80.4507 147.75C79.4917 147.134 79.6972 146.586 78.3958 146.415L73.8407 145.661L72.5049 145.353C69.765 144.565 66.1689 144.12 63.8057 143.469C62.2022 143.149 60.5762 142.954 58.9424 142.887C56.0267 142.354 53.0164 142.837 50.4144 144.257C48.8853 145.151 47.5283 146.311 46.4073 147.682L43.4276 152.066C43.4276 152.066 43.2221 152.648 43.1879 152.751C43.0083 153.232 42.8595 153.723 42.7426 154.223C41.9549 154.223 41.9207 153.949 41.5439 153.367L40.3452 151.518C38.7698 149.36 37.6053 146.997 36.2353 144.668C36.1774 144.548 36.1086 144.433 36.0299 144.325L35.7216 143.675C34.6941 140.935 33.0502 138.435 32.2967 135.592L31.7487 134.051C31.5775 133.606 31.3378 132.989 31.1665 132.407L30.8583 131.174C30.8789 131.038 30.8789 130.899 30.8583 130.763C30.8363 130.638 30.8249 130.512 30.824 130.386L30.276 127.749C30.1048 126.893 30.002 126.961 29.8308 126.105C29.8308 125.797 29.8308 125.694 29.8308 125.249L28.8718 118.673C28.8718 117.988 28.5978 117.577 28.5293 116.961C28.4608 116.344 28.5293 115.556 28.5293 114.906C28.5293 114.255 28.5293 114.015 28.3239 113.022V106.789C28.3239 105.145 28.5293 104.151 28.5293 102.644C28.5293 100.247 29.2143 97.5757 29.4198 95.2467C29.6253 92.9178 30.3788 90.7601 30.8583 88.3969L33.1872 80.3827C34.0092 78.3278 34.6257 76.2386 35.5846 74.2864C35.8375 73.824 36.055 73.3432 36.2353 72.8479L37.0916 71.067C38.2218 68.9778 39.1123 66.6489 40.5165 64.6282C41.1329 63.7035 41.4412 62.813 42.0577 62.0253C42.2062 61.8595 42.3328 61.6753 42.4344 61.4773L43.4276 59.8334C43.4832 59.704 43.5648 59.5874 43.6674 59.4909L53.942 46.853L59.0794 41.9897C59.7478 41.2744 60.469 40.6103 61.2371 40.0032C61.648 39.7292 61.2371 40.0032 61.8193 39.6265L67.1279 35.3111C67.6759 34.9344 67.8471 35.0371 68.3951 34.5234C68.7596 34.1919 69.162 33.9045 69.5938 33.6672L70.8268 32.811L71.409 32.4342L71.7515 32.2287L72.094 31.989L73.5667 31.03C75.6852 29.6915 77.881 28.4792 80.1425 27.3996L86.0675 24.8652C86.5739 24.7128 87.0665 24.5181 87.5402 24.283L88.6704 23.872C89.1499 23.7008 88.6704 23.872 89.0814 23.7008L92.3351 22.8445C95.2088 22.0253 98.1576 21.4975 101.137 21.2691C102.324 21.0184 103.525 20.8354 104.733 20.7211C106.672 20.7407 108.608 20.5917 110.521 20.2759C115.105 20.0616 119.699 20.3487 124.221 21.1321C126.378 21.6458 129.221 21.5773 131.584 22.2623C133.947 22.9473 136.516 23.1528 138.64 23.4953C139.758 23.7876 140.909 23.9372 142.064 23.9405C141.893 23.2555 141.79 23.324 141.037 23.0843L138.811 22.4678C138.023 22.2281 137.235 22.2623 136.79 21.6801C137.634 21.7005 138.472 21.8154 139.29 22.0226C142.508 22.5141 145.69 23.2235 148.812 24.146L154.531 26.0297C156.689 26.7489 154.908 25.4475 153.983 25.0365L147.955 22.3993L147.133 22.0911C146.67 21.8395 146.19 21.622 145.695 21.4403L138.468 19.0429C137.068 18.5329 135.623 18.1545 134.153 17.9127C132.886 17.9127 131.893 17.2962 130.728 17.0907C128.29 16.3881 125.807 15.8503 123.296 15.481C122.063 15.481 122.132 15.207 119.323 15.1043C118.124 15.1043 116.583 14.7618 115.385 14.7275C109.562 14.7275 107.747 15.0015 102.918 15.1043C102.325 15.1515 101.739 15.2664 101.171 15.4468C100.521 15.4468 99.7671 15.4468 99.0479 15.4468C98.3286 15.4468 97.7121 15.4468 97.1642 15.4468L92.4721 16.6112C92.1687 16.6645 91.8707 16.7447 91.5816 16.851C89.2184 17.536 86.9922 17.8442 84.7318 18.5977C84.1153 18.8032 83.6701 18.9059 83.1221 19.0429C81.7491 19.4729 80.4001 19.9759 79.0807 20.5499H78.7725C78.3615 20.5499 78.7725 20.5499 78.3615 20.5499L66.4086 25.8927L65.0729 26.6462L64.7304 26.8859L63.6002 27.3996C61.7106 28.2743 59.9099 29.3295 58.2232 30.5505L53.2228 34.2494C52.4008 34.7974 51.5104 35.8249 50.5171 35.8934C50.8272 35.4567 51.196 35.0648 51.6131 34.7289L55.449 31.7835C55.8607 31.4135 56.3218 31.1023 56.8189 30.8588L64.5935 26.0297L64.9359 25.7899L70.2788 22.3651C70.9108 21.827 71.6286 21.3987 72.4022 21.0978V20.7896C70.45 20.7896 68.6348 22.4678 66.3744 22.4678C66.5799 21.6458 66.8196 21.7828 67.5731 21.4403C69.1486 20.6869 70.6555 19.6936 72.2652 19.1114L75.4161 17.7414C76.0092 17.5682 76.5923 17.3624 77.1628 17.125C78.9095 16.5427 80.5877 15.8235 82.4029 15.4125C82.6991 15.3592 82.987 15.2671 83.2591 15.1385L85.9648 14.2481L87.8827 13.9056H88.3622C88.9444 13.9056 88.3622 13.9056 88.7732 13.9056L92.4721 12.8439H93.6023C93.3658 12.6641 93.0858 12.5504 92.7909 12.5143C92.4961 12.4782 92.197 12.521 91.9241 12.6384L87.232 13.7001H86.7525L74.3544 17.4332L73.4982 17.7072L66.7854 20.5499C66.2003 20.7542 65.6284 20.9944 65.0729 21.2691L59.5931 23.9748L58.7369 24.42L45.6538 32.8795C44.0441 33.9069 42.4002 35.8591 41.4754 36.0646C44.873 32.6274 48.5885 29.5197 52.5721 26.7832L53.2228 26.2694C53.4236 26.0824 53.6553 25.9317 53.9078 25.8242C56.625 23.9586 59.4497 22.2546 62.3673 20.7211L63.1207 20.3444L63.4632 20.1046C65.1786 19.1182 66.9644 18.2597 68.8061 17.536L75.9983 14.5563H76.4093L79.1835 13.7001L80.0055 13.3918H80.3822L85.6223 11.6794H85.9305L96.6504 9.59021C98.1231 9.59021 99.5958 9.31622 101.034 9.11072L110.384 8.83673C111.138 8.83673 111.925 8.83673 112.679 8.83673C113.432 8.83673 113.843 9.04223 114.905 9.04223C115.967 9.04223 116.618 9.04223 117.337 9.04223L119.494 9.38472L128.022 10.6177C128.536 10.6177 129.529 10.8232 130.009 10.8917L135.934 12.3301C136.554 12.4275 137.162 12.5882 137.749 12.8096L139.051 13.1863C140.386 13.7686 142.03 14.0768 143.4 14.659L143.811 14.8303L146.448 15.7893C147.784 16.166 155.798 20.1731 156.723 20.2416C156.261 19.7358 155.702 19.3281 155.079 19.0429L151.894 17.125C150.147 16.2002 148.469 15.618 146.517 14.7618L143.845 13.8713C142.03 13.3233 141.037 12.7069 138.537 12.0219C138.023 12.0219 138.537 12.0219 137.955 11.8164L130.488 9.7957C128.932 9.39534 127.354 9.08657 125.762 8.87098C124.015 8.87098 122.337 8.28875 120.659 8.15176L118.159 7.80927C117.28 7.86146 116.4 7.86146 115.522 7.80927C110.774 7.37397 106.001 7.2824 101.24 7.53528C100.281 7.53528 99.7671 7.87776 98.8081 7.94626L92.2323 8.52849C91.3419 8.52849 92.0611 8.73399 91.0679 8.87098C89.4115 8.93046 87.7679 9.18333 86.1703 9.62446L82.1974 10.4464C81.7864 10.4464 82.1974 10.4464 81.7179 10.4464C82.4371 9.41896 82.5056 10.7547 82.8481 9.48746C82.0946 9.65871 81.1357 9.82995 80.3822 10.0697C78.019 10.7547 75.6901 11.1314 73.3269 12.0219L71.9227 12.3301L68.8403 13.7001H68.4978L63.5317 15.7208C61.1001 17.1592 58.3944 18.3237 55.9285 19.7964L54.7983 20.5499H54.4215L52.6063 21.7828C52.3015 21.9804 51.9807 22.1522 51.6474 22.2966L47.9485 25.1392C46.514 26.1273 45.1415 27.2025 43.8386 28.3586C43.1879 29.0093 42.8111 28.9751 42.1262 29.6943C41.4412 30.4135 41.1672 30.4135 39.5575 32.0232L36.5778 34.6947C36.1669 35.0714 36.2353 35.2084 35.8244 35.6194L35.2079 36.1674L31.4405 40.1402L31.1323 40.5512L29.9678 41.8527C28.9911 42.9243 28.098 44.0693 27.2964 45.2776L19.9329 56.3742C17.9859 59.6231 16.2582 62.9984 14.7613 66.4776C13.7832 68.655 12.9257 70.8846 12.1926 73.1562L10.6857 77.677C10.151 79.2811 9.71635 80.9168 9.3842 82.5746L6.84978 93.9795C6.67854 97.4044 6.06206 100.35 6.09631 103.98C6.09631 105.247 5.92506 105.693 5.89081 106.789C5.82921 112.637 6.14955 118.483 6.84978 124.29C7.05528 125.968 7.36352 126.619 6.84978 126.79C6.77839 125.836 6.65261 124.887 6.47304 123.947C6.49019 123.708 6.49019 123.468 6.47304 123.228C6.51654 123.025 6.51654 122.815 6.47304 122.612L5.47983 115.282C5.20607 111.051 5.20607 106.807 5.47983 102.576C5.68532 101.069 5.47983 99.4593 5.47983 97.9524C5.47983 97.5072 5.75382 96.9249 5.82232 96.5482C5.86475 95.0569 6.00202 93.5697 6.2333 92.0958L9.93218 74.9714C10.0963 74.5997 10.2114 74.2083 10.2747 73.8069L13.6996 64.457C13.9051 63.9432 13.9393 63.8062 14.179 63.2582L18.8027 54.7988C19.0424 54.422 19.2136 54.0453 19.4191 53.7028C20.9946 50.9629 21.9878 49.7984 23.529 47.4353V47.2298L24.5222 45.9283C25.5671 44.3396 26.711 42.8182 27.9471 41.3732C28.2896 41.0307 28.3923 41.065 28.7006 40.6197L29.4541 39.4895L30.7898 37.9826L31.2008 37.6401C31.788 36.908 32.4415 36.2315 33.1529 35.6194L35.1051 33.6329C35.2709 33.4901 35.4202 33.3293 35.5504 33.1535L36.9546 31.8862C37.1943 31.6808 36.9546 31.8862 37.2286 31.6123L44.4551 25.7899C44.7976 25.5844 44.9003 25.379 45.2771 25.105L62.4015 14.8303C62.7045 14.6179 63.0399 14.4559 63.3947 14.3508L71.6487 10.9259C74.2174 10.0354 76.9231 9.72721 79.4917 9.00798C80.4507 8.73399 81.3069 8.83673 82.3344 8.59699C84.1496 8.22025 85.7593 7.67227 87.5402 7.43253C88.5677 7.26128 89.6294 7.05579 90.4856 6.95304V7.36403C90.0763 7.30877 89.6598 7.34794 89.268 7.47855C88.8762 7.60915 88.5195 7.82772 88.2252 8.11751C89.1948 8.07767 90.1529 7.89296 91.0679 7.56952C92.3351 7.19279 93.6023 7.22704 94.7667 6.74755C95.9312 6.26807 95.897 6.8503 95.897 6.06257C95.3832 6.30231 95.5887 6.06257 95.0065 6.30231L91.9583 6.98729C92.3008 6.50781 92.4036 6.47356 93.2598 6.43931V5.85708C89.6294 5.85708 90.1774 6.26807 88.1567 6.23382C86.136 6.19957 85.04 6.8503 83.3276 6.8503L78.567 7.56952C78.2253 7.69064 77.8675 7.75991 77.5053 7.77502C76.5121 7.77502 77.0601 7.77502 76.4436 8.04901C75.6138 8.24734 74.7622 8.33941 73.9092 8.323Z" fill="#D05D2B"/>
</g>
<path d="M255.111 87.0552V33.9905H245.097V27.8507H273.092V33.9905H263.37V87.0552H255.111ZM279.718 87.6399C278.061 87.6399 276.599 87.177 275.332 86.2512C274.065 85.2766 273.066 84.0584 272.336 82.5966C271.605 81.086 271.239 79.5023 271.239 77.8456C271.239 75.2143 271.678 72.9972 272.555 71.1942C273.432 69.3913 274.626 67.8807 276.136 66.6625C277.696 65.3956 279.474 64.2992 281.472 63.3734C283.519 62.4476 285.663 61.5461 287.904 60.669V57.6722C287.904 55.9668 287.807 54.5537 287.612 53.4329C287.417 52.3122 287.003 51.4838 286.369 50.9478C285.784 50.363 284.883 50.0707 283.665 50.0707C282.593 50.0707 281.716 50.3143 281.033 50.8016C280.4 51.2889 279.937 51.9954 279.645 52.9213C279.352 53.7984 279.206 54.846 279.206 56.0642V58.1839L271.458 57.8915C271.556 53.2136 272.628 49.7783 274.674 47.5856C276.721 45.3441 279.888 44.2233 284.176 44.2233C288.367 44.2233 291.339 45.3684 293.094 47.6586C294.848 49.9489 295.725 53.2624 295.725 57.5991V76.8954C295.725 78.2111 295.749 79.478 295.798 80.6962C295.895 81.9144 295.993 83.0595 296.09 84.1315C296.237 85.1548 296.358 86.1293 296.456 87.0552H289.293C289.147 86.2755 288.952 85.301 288.708 84.1315C288.513 82.9133 288.367 81.8169 288.27 80.8424C287.782 82.4991 286.832 84.0584 285.419 85.5202C284.055 86.9334 282.154 87.6399 279.718 87.6399ZM282.788 80.9155C283.567 80.9155 284.298 80.6962 284.98 80.2576C285.663 79.8191 286.272 79.3318 286.808 78.7958C287.344 78.2111 287.709 77.7481 287.904 77.407V65.42C286.686 66.1022 285.541 66.7844 284.469 67.4666C283.397 68.1487 282.447 68.8797 281.618 69.6593C280.839 70.3902 280.205 71.243 279.718 72.2175C279.279 73.1434 279.06 74.2154 279.06 75.4336C279.06 77.139 279.377 78.4791 280.01 79.4536C280.644 80.4282 281.569 80.9155 282.788 80.9155ZM273.87 40.6418L280.156 27.8507H288.123L294.482 40.6418H288.562L284.103 31.7977L279.718 40.6418H273.87ZM303.266 87.0552V44.8081H310.503V48.8281C311.916 47.2201 313.475 46.0263 315.18 45.2466C316.886 44.467 318.64 44.0771 320.443 44.0771C322.002 44.0771 323.391 44.467 324.609 45.2466C325.876 46.0263 326.778 47.415 327.314 49.4129C328.824 47.5612 330.457 46.2212 332.211 45.3928C334.014 44.5157 335.89 44.0771 337.839 44.0771C339.203 44.0771 340.446 44.4182 341.567 45.1004C342.687 45.7339 343.589 46.7815 344.271 48.2434C344.953 49.6565 345.294 51.5325 345.294 53.8715V87.0552H338.131V54.3831C338.131 52.3365 337.79 50.9721 337.108 50.29C336.475 49.559 335.597 49.1936 334.477 49.1936C333.405 49.1936 332.284 49.5103 331.115 50.1438C329.945 50.7285 328.873 51.5569 327.898 52.6289C327.898 52.8238 327.898 53.0187 327.898 53.2136C327.898 53.4085 327.898 53.6278 327.898 53.8715V87.0552H320.735V54.3831C320.735 52.3365 320.394 50.9721 319.712 50.29C319.079 49.559 318.202 49.1936 317.081 49.1936C316.009 49.1936 314.888 49.5103 313.719 50.1438C312.598 50.7285 311.526 51.5569 310.503 52.6289V87.0552H303.266ZM369.795 86.9821V27.7777H377.616V63.081L389.018 44.8081H397.204L387.264 61.3268L396.912 87.0552H389.091L381.197 65.42L377.616 70.8288V86.9821H369.795ZM401.203 87.0552V27.8507H409.024V49.1936C410.437 47.8292 412.021 46.6597 413.775 45.6852C415.529 44.7106 417.478 44.2233 419.623 44.2233C421.279 44.2233 422.546 44.6619 423.423 45.539C424.349 46.4161 424.983 47.5125 425.324 48.8281C425.713 50.1438 425.908 51.4838 425.908 52.8482V87.0552H418.088V55.114C418.088 53.6035 417.868 52.434 417.43 51.6056C416.991 50.7772 416.09 50.363 414.725 50.363C413.8 50.363 412.825 50.6311 411.802 51.1671C410.827 51.7031 409.901 52.3609 409.024 53.1405V87.0552H401.203ZM445.154 87.6399C442.036 87.6399 439.575 87.0064 437.772 85.7395C435.969 84.4726 434.678 82.6697 433.898 80.3307C433.167 77.9918 432.802 75.2387 432.802 72.0713V59.7919C432.802 56.6246 433.167 53.8715 433.898 51.5325C434.678 49.1936 435.969 47.3906 437.772 46.1237C439.575 44.8568 442.036 44.2233 445.154 44.2233C448.273 44.2233 450.709 44.8568 452.464 46.1237C454.267 47.3906 455.533 49.1936 456.264 51.5325C457.044 53.8715 457.434 56.6246 457.434 59.7919V72.0713C457.434 75.2387 457.044 77.9918 456.264 80.3307C455.533 82.6697 454.267 84.4726 452.464 85.7395C450.709 87.0064 448.273 87.6399 445.154 87.6399ZM445.154 81.8657C446.665 81.8657 447.713 81.4271 448.297 80.55C448.931 79.6729 449.296 78.5278 449.394 77.1147C449.54 75.6528 449.613 74.1423 449.613 72.583V59.3534C449.613 57.7453 449.54 56.2348 449.394 54.8217C449.296 53.4085 448.931 52.2634 448.297 51.3863C447.713 50.4605 446.665 49.9976 445.154 49.9976C443.644 49.9976 442.572 50.4605 441.938 51.3863C441.305 52.2634 440.915 53.4085 440.769 54.8217C440.671 56.2348 440.623 57.7453 440.623 59.3534V72.583C440.623 74.1423 440.671 75.6528 440.769 77.1147C440.915 78.5278 441.305 79.6729 441.938 80.55C442.572 81.4271 443.644 81.8657 445.154 81.8657ZM434.848 40.6418L441.134 27.8507H449.101L455.46 40.6418H449.54L445.081 31.7977L440.696 40.6418H434.848ZM464.583 87.0552V44.8081H472.403V48.9743C473.817 47.6586 475.376 46.5379 477.081 45.6121C478.787 44.6862 480.663 44.2233 482.709 44.2233C484.415 44.2233 485.706 44.6619 486.583 45.539C487.509 46.4161 488.143 47.5125 488.484 48.8281C488.873 50.1438 489.068 51.4838 489.068 52.8482V87.0552H481.248V55.114C481.248 53.6035 481.028 52.434 480.59 51.6056C480.151 50.7772 479.25 50.363 477.885 50.363C477.008 50.363 476.082 50.6311 475.108 51.1671C474.182 51.6543 473.281 52.2634 472.403 52.9944V87.0552H464.583ZM507.886 100.285C505.303 100.285 502.965 99.9924 500.869 99.4077C498.823 98.8717 497.19 98.019 495.972 96.8495C494.803 95.68 494.218 94.1451 494.218 92.2447C494.218 90.7829 494.559 89.4916 495.241 88.3708C495.923 87.2988 496.8 86.373 497.872 85.5933C498.945 84.8137 500.065 84.2046 501.235 83.766L504.889 84.2777C504.256 84.8624 503.647 85.4715 503.062 86.105C502.477 86.6897 501.99 87.2988 501.6 87.9323C501.21 88.6145 501.015 89.3454 501.015 90.125C501.015 91.392 501.551 92.3422 502.623 92.9756C503.744 93.6091 505.718 93.9258 508.544 93.9258C511.321 93.9258 513.368 93.5847 514.684 92.9025C516.048 92.2691 516.73 91.2458 516.73 89.8327C516.73 88.9556 516.56 88.2246 516.219 87.6399C515.877 87.1039 515.293 86.6654 514.464 86.3243C513.636 85.9832 512.442 85.7395 510.883 85.5933L501.673 84.4239C499.773 84.1802 498.36 83.5711 497.434 82.5966C496.508 81.622 496.045 80.55 496.045 79.3805C496.045 77.6263 496.532 76.1401 497.507 74.9219C498.53 73.7037 499.895 72.3393 501.6 70.8288L504.231 72.8754C503.939 73.2652 503.574 73.8255 503.135 74.5565C502.697 75.2387 502.477 75.9208 502.477 76.603C502.477 77.139 502.745 77.5776 503.281 77.9187C503.866 78.2598 504.767 78.4791 505.986 78.5765L513.076 79.2343C516.389 79.5267 518.85 80.5256 520.458 82.2311C522.066 83.9366 522.87 86.373 522.87 89.5403C522.87 91.8792 522.31 93.8527 521.189 95.4607C520.117 97.0688 518.484 98.2626 516.292 99.0422C514.099 99.8706 511.297 100.285 507.886 100.285ZM508.178 74.0448C505.303 74.0448 502.965 73.4114 501.162 72.1444C499.359 70.8775 498.019 69.1233 497.142 66.8818C496.313 64.6403 495.899 62.0821 495.899 59.2072C495.899 55.9424 496.362 53.2136 497.288 51.0209C498.214 48.7794 499.578 47.0983 501.381 45.9775C503.233 44.8081 505.498 44.2233 508.178 44.2233C510.956 44.2233 513.222 44.9299 514.976 46.343C516.73 47.7074 518.021 49.5347 518.85 51.8249C519.678 54.1151 520.092 56.649 520.092 59.4264C520.092 62.3014 519.703 64.8596 518.923 67.1011C518.192 69.2938 516.949 70.9993 515.195 72.2175C513.49 73.4357 511.151 74.0448 508.178 74.0448ZM508.178 68.4167C509.25 68.4167 510.103 68.2218 510.737 67.832C511.37 67.3935 511.833 66.7844 512.125 66.0047C512.467 65.2251 512.686 64.2749 512.783 63.1541C512.929 61.9847 513.003 60.669 513.003 59.2072C513.003 57.7453 512.954 56.4297 512.856 55.2602C512.759 54.0907 512.54 53.1162 512.198 52.3365C511.857 51.5082 511.37 50.8747 510.737 50.4361C510.103 49.9976 509.275 49.7783 508.252 49.7783C507.18 49.7783 506.302 49.9976 505.62 50.4361C504.987 50.826 504.475 51.4351 504.085 52.2634C503.744 53.0431 503.501 54.0176 503.354 55.1871C503.257 56.3566 503.208 57.6966 503.208 59.2072C503.208 60.5228 503.257 61.741 503.354 62.8618C503.501 63.9825 503.744 64.9571 504.085 65.7854C504.426 66.6138 504.914 67.2716 505.547 67.7589C506.229 68.1975 507.106 68.4167 508.178 68.4167ZM518.631 51.898L516.803 48.9743C517.193 48.2921 518.07 47.4394 519.435 46.4161C520.799 45.3928 522.261 44.5401 523.82 43.8579L525.867 48.9743C525.184 49.1205 524.259 49.3885 523.089 49.7783C521.968 50.1681 520.945 50.5823 520.019 51.0209C519.093 51.4107 518.631 51.7031 518.631 51.898ZM546.4 87.0552V27.8507H554.221V87.0552H546.4ZM568.731 87.6399C567.074 87.6399 565.612 87.177 564.345 86.2512C563.078 85.2766 562.079 84.0584 561.348 82.5966C560.617 81.086 560.252 79.5023 560.252 77.8456C560.252 75.2143 560.69 72.9972 561.568 71.1942C562.445 69.3913 563.638 67.8807 565.149 66.6625C566.708 65.3956 568.487 64.2992 570.485 63.3734C572.531 62.4476 574.675 61.5461 576.917 60.669V57.6722C576.917 55.9668 576.819 54.5537 576.624 53.4329C576.43 52.3122 576.015 51.4838 575.382 50.9478C574.797 50.363 573.896 50.0707 572.677 50.0707C571.605 50.0707 570.728 50.3143 570.046 50.8016C569.413 51.2889 568.95 51.9954 568.657 52.9213C568.365 53.7984 568.219 54.846 568.219 56.0642V58.1839L560.471 57.8915C560.569 53.2136 561.641 49.7783 563.687 47.5856C565.734 45.3441 568.901 44.2233 573.189 44.2233C577.38 44.2233 580.352 45.3684 582.106 47.6586C583.861 49.9489 584.738 53.2624 584.738 57.5991V76.8954C584.738 78.2111 584.762 79.478 584.811 80.6962C584.908 81.9144 585.006 83.0595 585.103 84.1315C585.249 85.1548 585.371 86.1293 585.469 87.0552H578.306C578.159 86.2755 577.964 85.301 577.721 84.1315C577.526 82.9133 577.38 81.8169 577.282 80.8424C576.795 82.4991 575.845 84.0584 574.432 85.5202C573.067 86.9334 571.167 87.6399 568.731 87.6399ZM571.8 80.9155C572.58 80.9155 573.311 80.6962 573.993 80.2576C574.675 79.8191 575.284 79.3318 575.82 78.7958C576.356 78.2111 576.722 77.7481 576.917 77.407V65.42C575.699 66.1022 574.554 66.7844 573.481 67.4666C572.409 68.1487 571.459 68.8797 570.631 69.6593C569.851 70.3902 569.218 71.243 568.731 72.2175C568.292 73.1434 568.073 74.2154 568.073 75.4336C568.073 77.139 568.389 78.4791 569.023 79.4536C569.656 80.4282 570.582 80.9155 571.8 80.9155ZM571.362 41.2997L563.249 26.8275H571.069L575.236 41.2997H571.362ZM592.279 87.0552V44.8081H599.515V48.8281C600.928 47.2201 602.488 46.0263 604.193 45.2466C605.899 44.467 607.653 44.0771 609.456 44.0771C611.015 44.0771 612.404 44.467 613.622 45.2466C614.889 46.0263 615.79 47.415 616.326 49.4129C617.837 47.5612 619.469 46.2212 621.224 45.3928C623.027 44.5157 624.903 44.0771 626.852 44.0771C628.216 44.0771 629.459 44.4182 630.579 45.1004C631.7 45.7339 632.602 46.7815 633.284 48.2434C633.966 49.6565 634.307 51.5325 634.307 53.8715V87.0552H627.144V54.3831C627.144 52.3365 626.803 50.9721 626.121 50.29C625.487 49.559 624.61 49.1936 623.489 49.1936C622.417 49.1936 621.297 49.5103 620.127 50.1438C618.958 50.7285 617.886 51.5569 616.911 52.6289C616.911 52.8238 616.911 53.0187 616.911 53.2136C616.911 53.4085 616.911 53.6278 616.911 53.8715V87.0552H609.748V54.3831C609.748 52.3365 609.407 50.9721 608.725 50.29C608.091 49.559 607.214 49.1936 606.094 49.1936C605.022 49.1936 603.901 49.5103 602.731 50.1438C601.611 50.7285 600.539 51.5569 599.515 52.6289V87.0552H592.279ZM658.662 87.0552V44.8081H665.898V48.8281C667.311 47.2201 668.87 46.0263 670.575 45.2466C672.281 44.467 674.035 44.0771 675.838 44.0771C677.397 44.0771 678.786 44.467 680.004 45.2466C681.271 46.0263 682.173 47.415 682.709 49.4129C684.219 47.5612 685.852 46.2212 687.606 45.3928C689.409 44.5157 691.285 44.0771 693.234 44.0771C694.598 44.0771 695.841 44.4182 696.962 45.1004C698.082 45.7339 698.984 46.7815 699.666 48.2434C700.348 49.6565 700.689 51.5325 700.689 53.8715V87.0552H693.526V54.3831C693.526 52.3365 693.185 50.9721 692.503 50.29C691.87 49.559 690.992 49.1936 689.872 49.1936C688.8 49.1936 687.679 49.5103 686.51 50.1438C685.34 50.7285 684.268 51.5569 683.293 52.6289C683.293 52.8238 683.293 53.0187 683.293 53.2136C683.293 53.4085 683.293 53.6278 683.293 53.8715V87.0552H676.13V54.3831C676.13 52.3365 675.789 50.9721 675.107 50.29C674.474 49.559 673.597 49.1936 672.476 49.1936C671.404 49.1936 670.283 49.5103 669.114 50.1438C667.993 50.7285 666.921 51.5569 665.898 52.6289V87.0552H658.662ZM714.408 87.6399C712.751 87.6399 711.46 87.2014 710.534 86.3243C709.608 85.4472 708.95 84.3508 708.56 83.0351C708.219 81.7195 708.049 80.3795 708.049 79.0151V44.8081H715.87V76.6761C715.87 78.1867 716.089 79.3805 716.527 80.2576C716.966 81.086 717.867 81.5002 719.232 81.5002C720.109 81.5002 721.01 81.2566 721.936 80.7693C722.911 80.2333 723.837 79.5998 724.714 78.8689V44.8081H732.535V87.0552H724.714V82.8889C723.349 84.2046 721.79 85.3253 720.036 86.2512C718.33 87.177 716.454 87.6399 714.408 87.6399ZM752.155 87.6399C749.036 87.6399 746.575 87.0064 744.772 85.7395C742.969 84.4726 741.678 82.6697 740.898 80.3307C740.168 77.9918 739.802 75.2387 739.802 72.0713V59.7919C739.802 56.6246 740.168 53.8715 740.898 51.5325C741.678 49.1936 742.969 47.3906 744.772 46.1237C746.575 44.8568 749.036 44.2233 752.155 44.2233C755.273 44.2233 757.71 44.8568 759.464 46.1237C761.267 47.3906 762.534 49.1936 763.265 51.5325C764.044 53.8715 764.434 56.6246 764.434 59.7919V72.0713C764.434 75.2387 764.044 77.9918 763.265 80.3307C762.534 82.6697 761.267 84.4726 759.464 85.7395C757.71 87.0064 755.273 87.6399 752.155 87.6399ZM752.155 81.8657C753.665 81.8657 754.713 81.4271 755.298 80.55C755.931 79.6729 756.296 78.5278 756.394 77.1147C756.54 75.6528 756.613 74.1423 756.613 72.583V59.3534C756.613 57.7453 756.54 56.2348 756.394 54.8217C756.296 53.4085 755.931 52.2634 755.298 51.3863C754.713 50.4605 753.665 49.9976 752.155 49.9976C750.644 49.9976 749.572 50.4605 748.939 51.3863C748.305 52.2634 747.915 53.4085 747.769 54.8217C747.672 56.2348 747.623 57.7453 747.623 59.3534V72.583C747.623 74.1423 747.672 75.6528 747.769 77.1147C747.915 78.5278 748.305 79.6729 748.939 80.55C749.572 81.4271 750.644 81.8657 752.155 81.8657ZM741.849 40.6418L748.135 27.8507H756.102L762.461 40.6418H756.54L752.081 31.7977L747.696 40.6418H741.849ZM771.583 87.0552V44.8081H779.404V48.9743C780.817 47.6586 782.376 46.5379 784.081 45.6121C785.787 44.6862 787.663 44.2233 789.71 44.2233C791.415 44.2233 792.706 44.6619 793.583 45.539C794.509 46.4161 795.143 47.5125 795.484 48.8281C795.874 50.1438 796.069 51.4838 796.069 52.8482V87.0552H788.248V55.114C788.248 53.6035 788.028 52.434 787.59 51.6056C787.151 50.7772 786.25 50.363 784.885 50.363C784.008 50.363 783.083 50.6311 782.108 51.1671C781.182 51.6543 780.281 52.2634 779.404 52.9944V87.0552H771.583ZM825.888 87.0552L817.555 44.8081H825.449L830.639 78.7958L835.901 44.8081H843.503L835.463 87.0552H825.888ZM849.041 87.0552V44.8081H856.862V87.0552H849.041ZM849.041 38.5222V30.3359H856.862V38.5222H849.041ZM876.926 87.6399C873.613 87.6399 871.055 87.0064 869.252 85.7395C867.449 84.4239 866.182 82.5235 865.451 80.0384C864.769 77.5045 864.428 74.4103 864.428 70.7557V61.1076C864.428 57.3555 864.793 54.2369 865.524 51.7518C866.255 49.2667 867.522 47.3906 869.325 46.1237C871.176 44.8568 873.71 44.2233 876.926 44.2233C880.484 44.2233 883.09 44.9542 884.747 46.4161C886.453 47.8779 887.573 49.9976 888.109 52.7751C888.645 55.5038 888.913 58.793 888.913 62.6425V66.0778H872.249V74.5565C872.249 76.2619 872.395 77.6507 872.687 78.7227C873.028 79.7947 873.54 80.5987 874.222 81.1347C874.953 81.622 875.879 81.8657 876.999 81.8657C878.169 81.8657 879.046 81.5976 879.631 81.0616C880.264 80.4769 880.678 79.6729 880.873 78.6496C881.117 77.5776 881.239 76.335 881.239 74.9219V72.3637H888.84V73.9717C888.84 78.2111 887.939 81.5489 886.136 83.9853C884.333 86.4217 881.263 87.6399 876.926 87.6399ZM872.249 61.8385H881.239V58.0377C881.239 56.2835 881.141 54.8217 880.946 53.6522C880.752 52.434 880.337 51.5325 879.704 50.9478C879.119 50.3143 878.169 49.9976 876.853 49.9976C875.586 49.9976 874.612 50.29 873.93 50.8747C873.296 51.4594 872.858 52.4584 872.614 53.8715C872.37 55.2358 872.249 57.1362 872.249 59.5726V61.8385ZM872.76 99.9193V91.66H880.654V99.9193H872.76ZM866.401 40.6418L872.687 29.3126H880.654L887.013 40.6418H881.093L876.634 33.2595L872.249 40.6418H866.401ZM907.544 87.6399C904.085 87.6399 901.454 86.9577 899.651 85.5933C897.896 84.1802 896.703 82.2067 896.069 79.6729C895.484 77.139 895.192 74.191 895.192 70.8288V61.1076C895.192 57.5504 895.509 54.5293 896.142 52.0442C896.776 49.5103 897.969 47.5856 899.724 46.2699C901.527 44.9055 904.134 44.2233 907.544 44.2233C910.614 44.2233 912.978 44.735 914.634 45.7583C916.34 46.7328 917.509 48.219 918.143 50.2169C918.776 52.166 919.093 54.6024 919.093 57.5261V60.0112H912.003V57.453C912.003 55.6013 911.881 54.1395 911.638 53.0674C911.394 51.9954 910.955 51.2158 910.322 50.7285C909.689 50.2412 908.787 49.9976 907.618 49.9976C906.351 49.9976 905.376 50.29 904.694 50.8747C904.012 51.4594 903.549 52.4584 903.305 53.8715C903.11 55.2358 903.013 57.1119 903.013 59.4995V72.8023C903.013 76.4081 903.354 78.8202 904.036 80.0384C904.718 81.2566 905.936 81.8657 907.691 81.8657C909.006 81.8657 909.957 81.5733 910.541 80.9885C911.175 80.3551 911.565 79.478 911.711 78.3572C911.906 77.2365 912.003 75.9696 912.003 74.5565V71.1211H919.093V74.0448C919.093 76.871 918.752 79.3074 918.07 81.354C917.436 83.4006 916.267 84.9599 914.561 86.0319C912.905 87.1039 910.566 87.6399 907.544 87.6399ZM263.443 195.713C259.253 195.713 255.988 194.836 253.649 193.082C251.359 191.327 249.751 188.964 248.825 185.992C247.948 183.019 247.509 179.706 247.509 176.051V155.147C247.509 151.151 247.948 147.667 248.825 144.695C249.751 141.722 251.359 139.432 253.649 137.824C255.988 136.167 259.253 135.339 263.443 135.339C267.147 135.339 270.07 136.021 272.214 137.386C274.407 138.75 275.966 140.699 276.892 143.233C277.867 145.767 278.354 148.812 278.354 152.37V157.047H270.533V152.881C270.533 150.688 270.412 148.764 270.168 147.107C269.973 145.401 269.388 144.086 268.414 143.16C267.439 142.234 265.807 141.771 263.517 141.771C261.178 141.771 259.472 142.283 258.4 143.306C257.328 144.281 256.622 145.694 256.28 147.545C255.988 149.348 255.842 151.468 255.842 153.904V177.367C255.842 180.339 256.086 182.703 256.573 184.457C257.06 186.162 257.864 187.381 258.985 188.111C260.106 188.842 261.616 189.208 263.517 189.208C265.758 189.208 267.366 188.721 268.341 187.746C269.315 186.723 269.924 185.334 270.168 183.58C270.412 181.826 270.533 179.779 270.533 177.44V173.055H278.354V177.44C278.354 181.046 277.916 184.238 277.039 187.015C276.161 189.744 274.651 191.888 272.507 193.447C270.363 194.958 267.342 195.713 263.443 195.713ZM297.186 195.64C294.068 195.64 291.607 195.006 289.804 193.74C288.001 192.473 286.71 190.67 285.93 188.331C285.199 185.992 284.834 183.239 284.834 180.071V167.792C284.834 164.625 285.199 161.871 285.93 159.533C286.71 157.194 288.001 155.391 289.804 154.124C291.607 152.857 294.068 152.223 297.186 152.223C300.305 152.223 302.741 152.857 304.495 154.124C306.298 155.391 307.565 157.194 308.296 159.533C309.076 161.871 309.466 164.625 309.466 167.792V180.071C309.466 183.239 309.076 185.992 308.296 188.331C307.565 190.67 306.298 192.473 304.495 193.74C302.741 195.006 300.305 195.64 297.186 195.64ZM297.186 189.866C298.697 189.866 299.744 189.427 300.329 188.55C300.963 187.673 301.328 186.528 301.426 185.115C301.572 183.653 301.645 182.142 301.645 180.583V167.353C301.645 165.745 301.572 164.235 301.426 162.822C301.328 161.409 300.963 160.263 300.329 159.386C299.744 158.461 298.697 157.998 297.186 157.998C295.676 157.998 294.604 158.461 293.97 159.386C293.337 160.263 292.947 161.409 292.801 162.822C292.703 164.235 292.654 165.745 292.654 167.353V180.583C292.654 182.142 292.703 183.653 292.801 185.115C292.947 186.528 293.337 187.673 293.97 188.55C294.604 189.427 295.676 189.866 297.186 189.866ZM286.88 148.642L293.166 135.851H301.133L307.492 148.642H301.572L297.113 139.798L292.728 148.642H286.88ZM316.614 195.055V152.808H324.435V156.974C325.848 155.659 327.408 154.538 329.113 153.612C330.819 152.686 332.695 152.223 334.741 152.223C336.447 152.223 337.738 152.662 338.615 153.539C339.541 154.416 340.174 155.512 340.515 156.828C340.905 158.144 341.1 159.484 341.1 160.848V195.055H333.279V163.114C333.279 161.603 333.06 160.434 332.621 159.606C332.183 158.777 331.281 158.363 329.917 158.363C329.04 158.363 328.114 158.631 327.14 159.167C326.214 159.654 325.312 160.263 324.435 160.994V195.055H316.614ZM359.918 208.285C357.335 208.285 354.996 207.992 352.901 207.408C350.854 206.872 349.222 206.019 348.004 204.849C346.834 203.68 346.25 202.145 346.25 200.245C346.25 198.783 346.591 197.492 347.273 196.371C347.955 195.299 348.832 194.373 349.904 193.593C350.976 192.814 352.097 192.205 353.266 191.766L356.921 192.278C356.288 192.862 355.679 193.472 355.094 194.105C354.509 194.69 354.022 195.299 353.632 195.932C353.242 196.614 353.047 197.345 353.047 198.125C353.047 199.392 353.583 200.342 354.655 200.976C355.776 201.609 357.749 201.926 360.576 201.926C363.353 201.926 365.4 201.585 366.715 200.903C368.08 200.269 368.762 199.246 368.762 197.833C368.762 196.956 368.591 196.225 368.25 195.64C367.909 195.104 367.324 194.665 366.496 194.324C365.668 193.983 364.474 193.74 362.915 193.593L353.705 192.424C351.805 192.18 350.392 191.571 349.466 190.597C348.54 189.622 348.077 188.55 348.077 187.381C348.077 185.626 348.564 184.14 349.539 182.922C350.562 181.704 351.926 180.339 353.632 178.829L356.263 180.875C355.971 181.265 355.605 181.826 355.167 182.556C354.728 183.239 354.509 183.921 354.509 184.603C354.509 185.139 354.777 185.578 355.313 185.919C355.898 186.26 356.799 186.479 358.017 186.577L365.107 187.234C368.421 187.527 370.882 188.526 372.49 190.231C374.098 191.937 374.902 194.373 374.902 197.54C374.902 199.879 374.341 201.853 373.221 203.461C372.149 205.069 370.516 206.263 368.323 207.042C366.131 207.871 363.329 208.285 359.918 208.285ZM360.21 182.045C357.335 182.045 354.996 181.411 353.193 180.144C351.39 178.878 350.05 177.123 349.173 174.882C348.345 172.64 347.931 170.082 347.931 167.207C347.931 163.942 348.394 161.214 349.32 159.021C350.245 156.779 351.61 155.098 353.413 153.978C355.264 152.808 357.53 152.223 360.21 152.223C362.988 152.223 365.254 152.93 367.008 154.343C368.762 155.707 370.053 157.535 370.882 159.825C371.71 162.115 372.124 164.649 372.124 167.426C372.124 170.301 371.734 172.86 370.955 175.101C370.224 177.294 368.981 178.999 367.227 180.218C365.522 181.436 363.183 182.045 360.21 182.045ZM360.21 176.417C361.282 176.417 362.135 176.222 362.768 175.832C363.402 175.393 363.865 174.784 364.157 174.005C364.498 173.225 364.718 172.275 364.815 171.154C364.961 169.985 365.034 168.669 365.034 167.207C365.034 165.745 364.986 164.43 364.888 163.26C364.791 162.091 364.571 161.116 364.23 160.337C363.889 159.508 363.402 158.875 362.768 158.436C362.135 157.998 361.307 157.778 360.283 157.778C359.211 157.778 358.334 157.998 357.652 158.436C357.019 158.826 356.507 159.435 356.117 160.263C355.776 161.043 355.532 162.018 355.386 163.187C355.289 164.357 355.24 165.697 355.24 167.207C355.24 168.523 355.289 169.741 355.386 170.862C355.532 171.983 355.776 172.957 356.117 173.785C356.458 174.614 356.945 175.272 357.579 175.759C358.261 176.197 359.138 176.417 360.21 176.417ZM370.662 159.898L368.835 156.974C369.225 156.292 370.102 155.439 371.466 154.416C372.831 153.393 374.293 152.54 375.852 151.858L377.898 156.974C377.216 157.12 376.29 157.388 375.121 157.778C374 158.168 372.977 158.582 372.051 159.021C371.125 159.411 370.662 159.703 370.662 159.898ZM407.495 195.64C403.938 195.64 401.282 194.349 399.528 191.766C397.774 189.135 396.897 184.7 396.897 178.463V170.277C396.897 167.061 397.165 164.089 397.701 161.36C398.237 158.582 399.236 156.365 400.697 154.708C402.208 153.052 404.401 152.223 407.276 152.223C408.689 152.223 409.98 152.54 411.15 153.174C412.319 153.807 413.367 154.587 414.292 155.512V145.426H406.106V141.113H414.292V135.851H422.113V141.113H426.426V145.426H422.113V195.055H414.292V192.351C413.367 193.325 412.343 194.129 411.223 194.763C410.151 195.348 408.908 195.64 407.495 195.64ZM409.468 189.5C410.199 189.5 410.979 189.378 411.807 189.135C412.636 188.842 413.464 188.428 414.292 187.892V160.19C413.61 159.703 412.855 159.289 412.027 158.948C411.198 158.558 410.297 158.363 409.322 158.363C407.519 158.363 406.301 159.24 405.668 160.994C405.034 162.7 404.717 164.771 404.717 167.207V179.121C404.717 181.07 404.815 182.849 405.01 184.457C405.253 186.016 405.716 187.259 406.399 188.185C407.081 189.062 408.104 189.5 409.468 189.5ZM436.958 195.64C435.302 195.64 434.01 195.201 433.085 194.324C432.159 193.447 431.501 192.351 431.111 191.035C430.77 189.719 430.599 188.379 430.599 187.015V152.808H438.42V184.676C438.42 186.187 438.64 187.381 439.078 188.258C439.517 189.086 440.418 189.5 441.782 189.5C442.66 189.5 443.561 189.257 444.487 188.769C445.461 188.233 446.387 187.6 447.264 186.869V152.808H455.085V195.055H447.264V190.889C445.9 192.205 444.341 193.325 442.586 194.251C440.881 195.177 439.005 195.64 436.958 195.64ZM448.361 156.901V152.808H449.092C450.554 152.808 451.577 152.37 452.162 151.492C452.746 150.567 453.039 149.202 453.039 147.399H459.105C459.105 150.567 458.253 152.954 456.547 154.562C454.842 156.122 452.405 156.901 449.238 156.901H448.361ZM440.978 149.3L445.291 134.827H453.112L444.925 149.3H440.978ZM474.632 195.64C471.172 195.64 468.541 194.958 466.738 193.593C464.984 192.18 463.79 190.207 463.157 187.673C462.572 185.139 462.28 182.191 462.28 178.829V169.108C462.28 165.55 462.596 162.529 463.23 160.044C463.863 157.51 465.057 155.586 466.811 154.27C468.614 152.906 471.221 152.223 474.632 152.223C477.702 152.223 480.065 152.735 481.722 153.758C483.428 154.733 484.597 156.219 485.23 158.217C485.864 160.166 486.181 162.602 486.181 165.526V168.011H479.091V165.453C479.091 163.601 478.969 162.139 478.725 161.067C478.482 159.995 478.043 159.216 477.41 158.729C476.776 158.241 475.875 157.998 474.705 157.998C473.438 157.998 472.464 158.29 471.782 158.875C471.099 159.459 470.636 160.458 470.393 161.871C470.198 163.236 470.1 165.112 470.1 167.5V180.802C470.1 184.408 470.442 186.82 471.124 188.038C471.806 189.257 473.024 189.866 474.778 189.866C476.094 189.866 477.044 189.573 477.629 188.989C478.262 188.355 478.652 187.478 478.798 186.357C478.993 185.236 479.091 183.97 479.091 182.556V179.121H486.181V182.045C486.181 184.871 485.84 187.307 485.157 189.354C484.524 191.401 483.354 192.96 481.649 194.032C479.992 195.104 477.653 195.64 474.632 195.64ZM521.093 195.64C518.9 195.64 517.122 195.226 515.757 194.397C514.442 193.569 513.467 192.4 512.833 190.889C512.249 189.378 511.956 187.6 511.956 185.553V157.998H507.498V152.808H511.956V140.456H519.777V152.808H526.575V157.998H519.777V185.042C519.777 186.698 520.045 187.892 520.581 188.623C521.117 189.305 522.141 189.646 523.651 189.646C524.041 189.646 524.479 189.622 524.967 189.573C525.503 189.525 526.014 189.476 526.502 189.427V195.201C525.527 195.348 524.626 195.445 523.797 195.494C522.969 195.591 522.067 195.64 521.093 195.64ZM532.54 195.055V152.808H540.361V158.802C541.92 156.219 543.48 154.489 545.039 153.612C546.598 152.735 548.158 152.296 549.717 152.296C549.912 152.296 550.082 152.296 550.229 152.296C550.423 152.296 550.667 152.321 550.959 152.37V160.994C550.375 160.751 549.693 160.556 548.913 160.41C548.182 160.215 547.427 160.117 546.647 160.117C545.429 160.117 544.308 160.41 543.285 160.994C542.31 161.53 541.336 162.602 540.361 164.21V195.055H532.54ZM561.521 195.64C559.865 195.64 558.403 195.177 557.136 194.251C555.869 193.277 554.87 192.058 554.139 190.597C553.408 189.086 553.043 187.502 553.043 185.846C553.043 183.214 553.481 180.997 554.358 179.194C555.235 177.391 556.429 175.881 557.94 174.663C559.499 173.396 561.278 172.299 563.275 171.373C565.322 170.448 567.466 169.546 569.708 168.669V165.672C569.708 163.967 569.61 162.554 569.415 161.433C569.22 160.312 568.806 159.484 568.173 158.948C567.588 158.363 566.686 158.071 565.468 158.071C564.396 158.071 563.519 158.314 562.837 158.802C562.203 159.289 561.741 159.995 561.448 160.921C561.156 161.798 561.01 162.846 561.01 164.064V166.184L553.262 165.892C553.359 161.214 554.431 157.778 556.478 155.586C558.524 153.344 561.692 152.223 565.98 152.223C570.17 152.223 573.143 153.368 574.897 155.659C576.651 157.949 577.528 161.262 577.528 165.599V184.895C577.528 186.211 577.553 187.478 577.601 188.696C577.699 189.914 577.796 191.059 577.894 192.132C578.04 193.155 578.162 194.129 578.259 195.055H571.096C570.95 194.276 570.755 193.301 570.512 192.132C570.317 190.913 570.17 189.817 570.073 188.842C569.586 190.499 568.636 192.058 567.222 193.52C565.858 194.933 563.958 195.64 561.521 195.64ZM564.591 188.915C565.371 188.915 566.102 188.696 566.784 188.258C567.466 187.819 568.075 187.332 568.611 186.796C569.147 186.211 569.513 185.748 569.708 185.407V173.42C568.489 174.102 567.344 174.784 566.272 175.467C565.2 176.149 564.25 176.88 563.422 177.659C562.642 178.39 562.009 179.243 561.521 180.218C561.083 181.143 560.863 182.215 560.863 183.434C560.863 185.139 561.18 186.479 561.814 187.454C562.447 188.428 563.373 188.915 564.591 188.915ZM566.053 148.569L563.568 145.645C564.981 145.012 566.126 144.378 567.003 143.745C567.88 143.111 568.319 142.332 568.319 141.406C568.319 140.382 567.88 139.652 567.003 139.213C566.175 138.774 565.127 138.555 563.86 138.555C563.275 138.555 562.666 138.604 562.033 138.701C561.399 138.75 560.766 138.872 560.133 139.067V135.12C562.033 134.633 564.006 134.389 566.053 134.389C567.564 134.389 568.928 134.608 570.146 135.047C571.364 135.485 572.339 136.192 573.07 137.166C573.801 138.092 574.166 139.286 574.166 140.748C574.166 142.161 573.801 143.355 573.07 144.329C572.388 145.304 571.437 146.132 570.219 146.815C569.001 147.448 567.612 148.033 566.053 148.569ZM607.255 195.055L598.922 152.808H606.816L612.005 186.796L617.268 152.808H624.87L616.83 195.055H607.255ZM641.591 195.64C638.277 195.64 635.719 195.006 633.916 193.74C632.113 192.424 630.846 190.523 630.115 188.038C629.433 185.505 629.092 182.41 629.092 178.756V169.108C629.092 165.356 629.457 162.237 630.188 159.752C630.919 157.267 632.186 155.391 633.989 154.124C635.841 152.857 638.375 152.223 641.591 152.223C645.148 152.223 647.755 152.954 649.411 154.416C651.117 155.878 652.238 157.998 652.774 160.775C653.31 163.504 653.578 166.793 653.578 170.642V174.078H636.913V182.556C636.913 184.262 637.059 185.651 637.351 186.723C637.692 187.795 638.204 188.599 638.886 189.135C639.617 189.622 640.543 189.866 641.664 189.866C642.833 189.866 643.71 189.598 644.295 189.062C644.928 188.477 645.343 187.673 645.538 186.65C645.781 185.578 645.903 184.335 645.903 182.922V180.364H653.505V181.972C653.505 186.211 652.603 189.549 650.8 191.985C648.997 194.422 645.927 195.64 641.591 195.64ZM636.913 169.838H645.903V166.038C645.903 164.283 645.806 162.822 645.611 161.652C645.416 160.434 645.002 159.533 644.368 158.948C643.783 158.314 642.833 157.998 641.517 157.998C640.251 157.998 639.276 158.29 638.594 158.875C637.96 159.459 637.522 160.458 637.278 161.871C637.034 163.236 636.913 165.136 636.913 167.573V169.838ZM631.065 148.642L637.351 137.313H645.318L651.677 148.642H645.757L641.298 141.26L636.913 148.642H631.065ZM652.481 141.04L646.634 132.635H653.431L657.305 141.04H652.481ZM677.509 194.982V135.778H685.33V171.081L696.732 152.808H704.918L694.978 169.327L704.626 195.055H696.805L688.911 173.42L685.33 178.829V194.982H677.509ZM708.917 195.055V135.851H716.738V157.194C718.151 155.829 719.735 154.66 721.489 153.685C723.243 152.711 725.192 152.223 727.336 152.223C728.993 152.223 730.26 152.662 731.137 153.539C732.063 154.416 732.697 155.512 733.038 156.828C733.427 158.144 733.622 159.484 733.622 160.848V195.055H725.802V163.114C725.802 161.603 725.582 160.434 725.144 159.606C724.705 158.777 723.804 158.363 722.439 158.363C721.513 158.363 720.539 158.631 719.516 159.167C718.541 159.703 717.615 160.361 716.738 161.141V195.055H708.917ZM752.868 195.64C749.75 195.64 747.289 195.006 745.486 193.74C743.683 192.473 742.392 190.67 741.612 188.331C740.881 185.992 740.516 183.239 740.516 180.071V167.792C740.516 164.625 740.881 161.871 741.612 159.533C742.392 157.194 743.683 155.391 745.486 154.124C747.289 152.857 749.75 152.223 752.868 152.223C755.987 152.223 758.423 152.857 760.178 154.124C761.98 155.391 763.247 157.194 763.978 159.533C764.758 161.871 765.148 164.625 765.148 167.792V180.071C765.148 183.239 764.758 185.992 763.978 188.331C763.247 190.67 761.98 192.473 760.178 193.74C758.423 195.006 755.987 195.64 752.868 195.64ZM752.868 189.866C754.379 189.866 755.427 189.427 756.011 188.55C756.645 187.673 757.01 186.528 757.108 185.115C757.254 183.653 757.327 182.142 757.327 180.583V167.353C757.327 165.745 757.254 164.235 757.108 162.822C757.01 161.409 756.645 160.263 756.011 159.386C755.427 158.461 754.379 157.998 752.868 157.998C751.358 157.998 750.286 158.461 749.652 159.386C749.019 160.263 748.629 161.409 748.483 162.822C748.385 164.235 748.337 165.745 748.337 167.353V180.583C748.337 182.142 748.385 183.653 748.483 185.115C748.629 186.528 749.019 187.673 749.652 188.55C750.286 189.427 751.358 189.866 752.868 189.866ZM742.562 148.642L748.848 135.851H756.815L763.174 148.642H757.254L752.795 139.798L748.41 148.642H742.562ZM772.297 195.055V152.808H780.117V156.974C781.53 155.659 783.09 154.538 784.795 153.612C786.501 152.686 788.377 152.223 790.423 152.223C792.129 152.223 793.42 152.662 794.297 153.539C795.223 154.416 795.856 155.512 796.198 156.828C796.587 158.144 796.782 159.484 796.782 160.848V195.055H788.961V163.114C788.961 161.603 788.742 160.434 788.304 159.606C787.865 158.777 786.964 158.363 785.599 158.363C784.722 158.363 783.796 158.631 782.822 159.167C781.896 159.654 780.994 160.263 780.117 160.994V195.055H772.297ZM815.6 208.285C813.017 208.285 810.679 207.992 808.583 207.408C806.537 206.872 804.904 206.019 803.686 204.849C802.517 203.68 801.932 202.145 801.932 200.245C801.932 198.783 802.273 197.492 802.955 196.371C803.637 195.299 804.514 194.373 805.586 193.593C806.658 192.814 807.779 192.205 808.949 191.766L812.603 192.278C811.97 192.862 811.361 193.472 810.776 194.105C810.191 194.69 809.704 195.299 809.314 195.932C808.924 196.614 808.729 197.345 808.729 198.125C808.729 199.392 809.265 200.342 810.337 200.976C811.458 201.609 813.432 201.926 816.258 201.926C819.035 201.926 821.082 201.585 822.398 200.903C823.762 200.269 824.444 199.246 824.444 197.833C824.444 196.956 824.274 196.225 823.933 195.64C823.591 195.104 823.007 194.665 822.178 194.324C821.35 193.983 820.156 193.74 818.597 193.593L809.387 192.424C807.487 192.18 806.074 191.571 805.148 190.597C804.222 189.622 803.759 188.55 803.759 187.381C803.759 185.626 804.246 184.14 805.221 182.922C806.244 181.704 807.609 180.339 809.314 178.829L811.945 180.875C811.653 181.265 811.288 181.826 810.849 182.556C810.411 183.239 810.191 183.921 810.191 184.603C810.191 185.139 810.459 185.578 810.995 185.919C811.58 186.26 812.481 186.479 813.7 186.577L820.79 187.234C824.103 187.527 826.564 188.526 828.172 190.231C829.78 191.937 830.584 194.373 830.584 197.54C830.584 199.879 830.024 201.853 828.903 203.461C827.831 205.069 826.198 206.263 824.006 207.042C821.813 207.871 819.011 208.285 815.6 208.285ZM815.892 182.045C813.017 182.045 810.679 181.411 808.876 180.144C807.073 178.878 805.733 177.123 804.856 174.882C804.027 172.64 803.613 170.082 803.613 167.207C803.613 163.942 804.076 161.214 805.002 159.021C805.928 156.779 807.292 155.098 809.095 153.978C810.947 152.808 813.212 152.223 815.892 152.223C818.67 152.223 820.936 152.93 822.69 154.343C824.444 155.707 825.735 157.535 826.564 159.825C827.392 162.115 827.806 164.649 827.806 167.426C827.806 170.301 827.417 172.86 826.637 175.101C825.906 177.294 824.663 178.999 822.909 180.218C821.204 181.436 818.865 182.045 815.892 182.045ZM815.892 176.417C816.964 176.417 817.817 176.222 818.451 175.832C819.084 175.393 819.547 174.784 819.839 174.005C820.18 173.225 820.4 172.275 820.497 171.154C820.643 169.985 820.716 168.669 820.716 167.207C820.716 165.745 820.668 164.43 820.57 163.26C820.473 162.091 820.254 161.116 819.912 160.337C819.571 159.508 819.084 158.875 818.451 158.436C817.817 157.998 816.989 157.778 815.966 157.778C814.893 157.778 814.016 157.998 813.334 158.436C812.701 158.826 812.189 159.435 811.799 160.263C811.458 161.043 811.215 162.018 811.068 163.187C810.971 164.357 810.922 165.697 810.922 167.207C810.922 168.523 810.971 169.741 811.068 170.862C811.215 171.983 811.458 172.957 811.799 173.785C812.14 174.614 812.628 175.272 813.261 175.759C813.943 176.197 814.82 176.417 815.892 176.417ZM826.345 159.898L824.517 156.974C824.907 156.292 825.784 155.439 827.149 154.416C828.513 153.393 829.975 152.54 831.534 151.858L833.581 156.974C832.898 157.12 831.973 157.388 830.803 157.778C829.682 158.168 828.659 158.582 827.733 159.021C826.807 159.411 826.345 159.703 826.345 159.898Z" fill="#D05D2B"/>
<defs>
<clipPath id="clip0_160_29">
<rect width="212.001" height="216.111" fill="white"/>
</clipPath>
</defs>
</svg>
