<svg width="123" height="89" viewBox="0 0 123 89" fill="none" xmlns="http://www.w3.org/2000/svg">
<g clip-path="url(#clip0_86_2)">
<path fill-rule="evenodd" clip-rule="evenodd" d="M0 58.91C7.35 64.85 16.21 68.43 28.93 67.22C25.76 70.3 25.27 73.11 25 77.53C33.63 79.2 42 79.12 49.72 75.2C50.6371 78.1023 52.1546 80.7791 54.1737 83.0567C56.1929 85.3343 58.6686 87.1616 61.44 88.42C64.2095 87.162 66.6828 85.3345 68.6987 83.0567C70.7146 80.7789 72.2279 78.1018 73.14 75.2C80.88 79.12 89.24 79.2 97.87 77.53C97.61 73.11 97.11 70.3 93.95 67.22C106.67 68.43 115.53 64.85 122.88 58.91L108.88 56.44C101.6 63.31 91.41 65.66 81.67 66.13C75.1568 66.3425 68.6373 66.008 62.18 65.13L61.48 65.05H61.4C54.9455 65.9218 48.4298 66.2563 41.92 66.05C32.12 65.57 21.78 63.24 14.36 56.41C9.94 57.15 5.19 58 0 58.91ZM61.53 0C81.7 16 81.7 41.8 61.53 57.75C41.11 44.31 41.11 13.44 61.53 0ZM28.28 11.06C18.66 31.63 30.65 42.9 47.28 50.87C43.0554 44.3112 40.8156 36.6716 40.83 28.87C40.8312 25.2841 41.3018 21.7137 42.23 18.25C37.7878 15.4366 33.1024 13.0269 28.23 11.05L28.28 11.06ZM95.37 10.77C103.14 29.43 91.73 42.77 74.75 51.51C79.4263 44.8867 81.957 36.9877 82 28.88C81.9972 25.4323 81.5263 22.0009 80.6 18.68C85.2414 15.5712 90.1747 12.922 95.33 10.77H95.37ZM113.6 24.35C115.43 61.72 85.66 62.02 68.13 60.35L69.88 59.65C80.88 55.07 90.68 48.88 96.73 40.87C100.367 36.244 102.596 30.6686 103.15 24.81C106.608 24.3289 110.103 24.1715 113.59 24.34L113.6 24.35ZM9.28 24.35C7.44 61.8 38.28 61.88 55.68 60.25C44.38 55.88 33.5 50.64 26.7 43C22.16 37.89 19.41 31.93 19.42 24.8C16.0602 24.3471 12.666 24.2032 9.28 24.37V24.35ZM61.14 59.67H61.44V59.5L61.19 59.71L61.14 59.67Z" fill="#D05D2B"/>
</g>
<defs>
<clipPath id="clip0_86_2">
<rect width="122.88" height="88.42" fill="white"/>
</clipPath>
</defs>
</svg>
