<svg width="60" height="69" viewBox="0 0 60 69" fill="none" xmlns="http://www.w3.org/2000/svg">
<path d="M57.0663 16.9011C56.2053 16.0151 55.1603 15.2501 54.0743 14.6571C53.0813 14.1151 52.5933 13.4801 52.5043 12.3461C52.2973 9.73707 51.0783 7.56107 49.3363 5.66307C44.6993 0.611073 37.3623 -1.18693 30.9773 1.25807C29.9263 1.66107 29.1013 1.62507 28.1303 1.17807C26.0383 0.214073 23.8203 -0.169928 21.5203 0.0690717C17.7543 0.462072 14.3933 1.88807 11.4633 4.25907C8.90729 6.32707 7.11228 8.90307 6.80228 12.2851C6.70228 13.3821 6.36629 14.1881 5.25329 14.6001C4.71529 14.7991 4.22929 15.1681 3.75629 15.5111C-0.920713 18.9011 -1.24871 23.6171 2.87629 27.6621C4.90429 29.6511 7.39328 30.7751 10.0123 31.7321C10.9073 32.0591 11.8473 32.5741 12.4733 33.2681C15.4513 36.5641 19.1643 38.5051 23.4253 39.4901C24.7103 39.7871 26.0273 39.9511 27.5483 40.2131C27.5483 41.5061 27.5033 42.7461 27.5553 43.9811C27.9643 53.7111 31.3583 61.9091 39.6723 67.5981C41.7483 69.0191 42.3623 68.9581 44.0823 67.0711C45.2083 65.8361 45.1153 64.2541 43.1013 64.0581C41.0093 63.8541 39.3153 62.7061 37.9513 61.1751C36.7893 59.8701 35.5713 58.5341 34.7683 57.0061C32.0283 51.7971 31.0213 46.1841 31.1753 40.1251C32.2213 40.0291 32.8873 39.9901 33.5473 39.9041C38.2453 39.2981 42.4713 37.5871 45.8283 34.1881C47.1563 32.8431 48.5033 31.8261 50.3473 31.2741C53.2063 30.4181 55.6503 28.7861 57.5203 26.4151C60.0113 23.2631 59.8693 19.7831 57.0663 16.9011ZM9.80228 8.92707C11.8543 5.49207 15.0983 3.70407 18.7583 2.46207C21.8603 1.40907 24.8893 1.56107 27.7703 3.03707C29.0983 3.71707 30.1493 3.76107 31.4793 3.04107C38.6353 -0.828928 49.1623 5.29407 50.4583 11.1971C50.5633 11.6731 50.6223 12.1591 50.7463 12.9011C48.7563 12.6051 47.1193 12.2871 45.4673 12.1371C43.6923 11.9761 41.8983 12.1541 40.3863 13.1661C39.0443 14.0641 37.8523 15.1881 36.2503 16.4921C36.5083 14.3751 36.9963 12.8531 38.4693 11.8891C39.5013 11.2141 39.4303 10.3661 39.0243 9.50407C38.5443 8.48407 37.5813 8.45807 36.6373 8.74707C35.7933 9.00607 35.3673 9.73407 35.5963 10.5101C36.0043 11.8941 35.2793 12.9161 34.8253 14.0721C34.2813 15.4581 33.4423 15.5241 32.1153 14.8811C32.6863 12.6711 32.7593 10.3931 34.1593 8.47907C34.6903 7.75407 34.9203 6.80507 34.1113 6.22907C33.6143 5.87507 32.6803 5.78007 32.0933 5.99007C31.2633 6.28707 30.8693 7.12307 31.1443 8.06607C31.9033 10.6651 30.3763 12.8111 30.0843 15.3821C29.5413 15.0861 29.1813 15.0011 29.1573 14.8601C28.7643 12.5331 27.3463 10.3671 28.1543 7.83907C28.4463 6.92507 27.8393 6.13107 26.9863 5.88507C26.4443 5.72807 25.6253 5.86707 25.1753 6.20307C24.3663 6.80607 24.5523 7.72307 25.0953 8.45007C26.5193 10.3571 26.5823 12.6411 27.1543 14.8251C25.8483 15.5711 25.0223 15.4741 24.4713 14.0981C24.0113 12.9481 23.2783 11.9381 23.6673 10.5411C23.9133 9.66007 23.4133 8.89507 22.4203 8.68407C21.5483 8.49807 20.6773 8.57107 20.2563 9.48007C19.8533 10.3491 19.7613 11.2061 20.7833 11.8731C22.2713 12.8441 22.7383 14.3691 23.0503 16.5091C21.4283 15.1871 20.2433 14.0661 18.9073 13.1731C17.3953 12.1621 15.6023 11.9771 13.8273 12.1371C12.1723 12.2871 10.5323 12.6051 8.65028 12.8841C8.48128 11.3621 9.09328 10.1161 9.80228 8.92707ZM4.07329 26.2451C0.915288 23.1411 1.13129 19.7461 4.69729 17.1241C7.61029 14.9831 10.9813 13.9791 14.5513 13.8961C16.9943 13.8391 19.0853 14.8121 20.4833 17.1511C15.2423 20.6261 13.7063 25.2091 16.6913 31.3371C11.8343 30.4871 7.46929 29.5831 4.07329 26.2451ZM37.8483 32.8621C37.5623 32.1681 37.3033 31.4771 36.9973 30.8071C35.8923 28.3871 34.2223 26.4611 31.9883 25.0011C30.4093 23.9691 28.9023 23.9521 27.3143 24.9881C25.0793 26.4461 23.3973 28.3591 22.2973 30.7851C21.9903 31.4621 21.7263 32.1581 21.4393 32.8541C16.2033 30.0421 15.4723 23.5771 19.8933 19.9101C20.0223 19.8031 20.1623 19.7111 20.2913 19.6041C24.6603 15.9641 34.5193 16.0621 38.9813 19.5581C43.7263 23.2761 43.2863 29.8551 37.8483 32.8621ZM56.4883 24.6291C55.6213 25.8221 54.5243 26.9421 53.3093 27.7701C50.2223 29.8721 46.6813 30.7371 42.7153 31.2441C45.1033 25.4871 44.7853 21.6681 38.8483 17.0581C40.3023 14.6861 42.5243 13.7531 45.1533 13.8951C48.2773 14.0631 51.2523 14.9431 53.8983 16.6641C54.7913 17.2451 55.6263 18.0031 56.2873 18.8381C57.7503 20.6861 57.8703 22.7281 56.4883 24.6291Z" fill="#D05D2B"/>
</svg>
