<svg width="320" height="326" viewBox="0 0 320 326" fill="none" xmlns="http://www.w3.org/2000/svg">
<path fill-rule="evenodd" clip-rule="evenodd" d="M111.561 12.5629C115.43 11.3428 119.365 10.3418 123.347 9.56453C130.17 8.03479 137.074 6.89562 144.026 6.15257L155.606 5.739C157.053 5.739 157.053 5.42882 158.449 5.42882C159.845 5.42882 160.052 5.6873 160.982 5.6873C161.856 5.55473 162.745 5.55473 163.619 5.6873C166.546 5.84304 169.48 5.84304 172.407 5.6873C173.803 5.6873 173.803 5.6873 175.199 5.6873C180.507 6.09693 185.789 6.80456 191.018 7.80685L201.357 9.9264C202.443 10.2366 202.494 10.34 203.58 10.5985C204.439 10.7139 205.287 10.9042 206.113 11.1671L212.885 13.235C215.263 13.8036 216.969 14.9926 219.502 15.7164L225.861 18.1978C226.637 18.1978 225.861 18.1978 226.843 18.6631L227.981 19.18C230.772 20.369 233.15 22.0233 236.097 23.3157L241.628 26.6243C242.404 27.0896 242.817 27.5031 243.49 27.865L244.42 28.382L259.929 38.7212C260.526 39.2361 261.234 39.6075 261.997 39.8069C262.307 38.411 261.531 38.0492 259.929 36.7568L253.363 31.8973C252.124 31.1898 250.948 30.3769 249.848 29.4676C249.335 28.9995 248.739 28.6314 248.09 28.382H247.729L247.16 28.0718L234.856 21.0411C232.995 20.1623 231.134 18.9216 229.17 18.1978L228.187 17.7325L225.292 16.3367C224.962 16.1798 224.615 16.0585 224.258 15.9749L221.208 14.7342C220.226 14.3723 219.968 14.1655 219.037 13.8036L195.929 6.77293L189.829 5.739C188.223 5.44143 186.6 5.25145 184.969 5.17034C184.095 5.0422 183.232 4.85217 182.384 4.60168C181.526 4.70364 180.658 4.70364 179.8 4.60168L172.2 3.15419C168.326 2.94463 164.443 2.94463 160.569 3.15419C159.535 3.15419 159.948 3.61945 158.242 3.67115C156.5 3.59207 154.756 3.78391 153.073 4.23981C152.194 4.23981 151.108 4.23981 150.229 4.23981C149.351 4.23981 149.247 4.60168 148.265 4.70508C147.283 4.80847 146.559 4.70508 145.732 4.70508C144.854 4.77566 143.973 4.77566 143.095 4.70508C141.183 4.70508 141.648 4.96356 140.459 5.17034C138.288 5.63561 135.289 5.17034 132.756 5.99748C131.844 6.07396 130.928 6.07396 130.016 5.99748C128.62 5.99748 129.137 6.46275 127.742 6.56614L119.212 6.87632L120.607 5.99748C121.753 5.79147 122.909 5.65337 124.071 5.58391C124.898 5.32543 125.053 5.11865 125.88 4.86016L130.74 3.67115L136.943 2.22365C138.132 1.91348 139.89 1.86178 141.234 1.65499L145.577 1.03464C146.611 1.03464 147.696 1.03464 148.73 0.776158L149.919 0.310891C148.737 0.0186482 147.516 -0.08602 146.3 0.000713464C144.75 0.000713464 144.75 0.517676 143.147 0.621069C141.976 0.560295 140.803 0.560295 139.632 0.621069L134.927 1.49991C133.738 1.49991 134.617 1.75839 133.428 1.96517L124.071 3.72285H123.399H122.779L118.281 5.17034C117.402 5.17034 117.764 5.17034 116.937 5.53222L113.163 6.61784L102.979 10.34C100.032 11.6841 96.517 12.6146 93.6737 14.1138L91.1922 15.5096L86.0226 17.9393C82.7247 19.4175 79.5448 21.1457 76.5105 23.1089L75.3732 23.6776C69.9428 27.1186 64.7604 30.9362 59.8643 35.1025L59.5541 35.4127C58.6236 36.3432 58.3134 36.1881 57.4346 37.0153L51.6963 42.3917C51.4741 42.7461 51.2141 43.0755 50.9208 43.3739C50.3522 43.9943 50.4039 43.7358 49.8352 44.2527L45.2859 48.8537C44.9091 49.1276 44.5776 49.4591 44.3037 49.8359C43.7846 50.548 43.1765 51.1908 42.4944 51.7487C41.3053 52.6792 41.7706 52.886 40.8918 53.8165L39.0307 55.6776C38.3586 56.5564 38.0485 56.8666 37.3247 57.6938L33.189 62.8634C32.6204 63.6905 33.189 63.2253 32.4136 64.0524C31.6381 64.8795 32.4136 64.0524 31.5347 64.8795L27.7609 70.5144C27.5732 70.8702 27.3662 71.2154 27.1406 71.5484C25.2795 74.1849 23.832 77.1316 21.9709 79.6647C21.4161 80.3828 20.9476 81.1636 20.5751 81.991L16.8013 89.4353C16.308 90.2104 15.8759 91.0228 15.5089 91.865L6.10016 116.886C6.10016 117.144 6.10016 117.248 6.10016 117.506L5.16963 120.505C5.06015 121.034 4.90447 121.553 4.70436 122.056C4.70436 122.366 4.44588 123.193 4.39418 123.451L4.03231 125.054C4.03231 125.778 4.03231 125.054 4.03231 125.726L3.41196 127.949C3.41196 129.138 3.41195 130.069 3.05008 131.309L0.878837 144.13C0.878837 145.888 0.41357 145.836 0.310178 147.232L0 169.203C0 170.754 0.310178 171.012 0.310178 172.563C0.310178 174.114 0.310178 175.303 0.310178 176.233C0.310178 177.164 0.878837 177.164 0.878837 179.439C0.927551 180.506 1.10105 181.565 1.3958 182.592C1.3958 183.161 1.3958 183.729 1.3958 184.246C1.3958 185.745 1.3958 184.66 1.86107 185.797C2.32633 186.934 1.86107 188.33 2.22294 189.106C2.48917 190.127 2.6963 191.163 2.8433 192.207C2.90143 193.302 3.03966 194.39 3.25687 195.464C3.25687 195.464 3.25687 196.033 3.25687 196.136L5.47981 205.287L6.41034 208.078L7.70275 212.524C8.27141 215.006 9.30533 216.918 9.97738 219.348C10.605 221.11 11.3299 222.836 12.1486 224.518L13.8546 228.498C16.048 233.635 18.5691 238.625 21.4023 243.439L28.9499 255.535C29.1311 255.903 29.3762 256.236 29.6737 256.518C29.7736 256.688 29.8952 256.844 30.0355 256.983C30.2326 257.187 30.406 257.412 30.5525 257.655L35.3086 263.962L35.6704 264.479L61.105 290.327C61.9838 291.102 62.3974 291.206 63.2246 291.878L67.3086 295.186C68.0885 295.626 68.8319 296.127 69.5315 296.686L80.8013 303.975C82.3215 304.936 83.8919 305.817 85.5057 306.611C86.4362 307.077 87.0049 307.542 87.8837 307.955L95.3797 311.574C95.7876 311.698 96.1852 311.853 96.5687 312.039L98.2746 312.918C100.056 313.765 101.886 314.508 103.754 315.141L116.937 319.587L118.229 320.001H118.85C121.693 320.931 125.002 321.448 127.948 322.275L133.428 323.309L135.031 323.723L141.544 324.602C142.733 324.602 143.974 324.602 145.06 324.602L148.265 325.067C150.591 325.067 153.124 325.377 155.141 325.584C161.108 325.723 167.078 325.55 173.027 325.067C173.664 325.119 174.304 325.119 174.94 325.067C175.664 325.067 175.612 324.705 176.491 324.602C177.37 324.498 178.973 324.602 179.955 324.602L186.365 323.671C187.423 323.44 188.493 323.268 189.57 323.154L203.373 319.846L204.252 319.587L205.493 319.122L210.662 317.726C213.195 316.744 215.832 316.175 218.262 315.038L225.137 312.246C226.947 311.212 229.015 310.592 230.927 309.506C232.84 308.421 234.236 308.059 235.838 307.025L242.973 303.406C244.213 302.889 244.834 302.165 245.971 301.597L248.297 300.149L256.258 294.67L256.879 294.153L258.068 293.325L275.334 277.817L275.748 277.351L277.195 275.955L277.816 275.439C278.488 274.818 279.057 274.249 279.677 273.577L280.039 273.112L289.913 261.325C291.515 258.896 293.48 256.621 295.082 254.088L297.305 250.624C299.445 247.166 301.395 243.593 303.147 239.923L305.008 236.149C305.422 235.27 305.68 234.392 306.145 233.565L308.368 228.395C308.679 227.464 309.195 226.844 309.506 225.862C309.816 224.88 309.506 224.983 309.971 224.311L310.436 222.812C311.263 220.072 312.607 217.642 313.228 214.54L315.347 207.51C315.642 206.524 315.884 205.523 316.071 204.511C316.485 201.358 317.57 198.67 318.036 195.413C318.397 192.931 319.121 183.367 319.535 182.075C319.821 178.341 319.821 174.591 319.535 170.857H318.397C319.121 165.003 319.121 159.082 318.397 153.228H317.829C317.469 155.295 317.279 157.387 317.26 159.484C317.26 160.621 316.795 161.19 316.743 162.327C316.691 163.464 316.743 164.757 316.743 165.791C316.743 166.825 316.743 166.928 316.743 167.445C316.743 168.892 316.743 167.755 316.381 168.789C316.194 169.917 316.09 171.058 316.071 172.201C316.071 173.649 315.658 177.371 314.727 177.991C314.704 176.615 314.861 175.242 315.192 173.907L315.606 165.429C315.571 164.009 315.675 162.589 315.916 161.19C316.257 156.733 316.257 152.257 315.916 147.8C315.822 147.188 315.684 146.583 315.502 145.991C315.141 143.975 315.502 141.442 315.037 139.322C315.037 138.443 314.675 138.754 314.572 137.513C314.256 133.674 313.295 129.917 311.729 126.398C310.643 124.227 308.265 116.059 306.301 115.594C306.491 116.785 306.875 117.938 307.438 119.006L310.178 128.259C310.178 129.241 310.591 129.655 310.746 130.224C310.901 130.792 310.746 133.067 311.263 134.308L312.504 142.682C312.504 144.647 313.073 144.905 313.073 146.973H311.677C311.677 148.679 311.987 149.765 311.677 151.781C311.677 158.76 311.677 165.481 311.315 172.46C311.315 173.855 311.315 173.287 311.315 174.476C311.315 175.665 310.85 175.148 310.85 176.854C310.622 181.397 309.999 185.911 308.989 190.346L308.213 194.741C308.213 196.033 308.213 194.741 308.213 195.619L307.438 198.566C307.179 199.445 307.024 199.548 306.817 200.479L306.249 202.805L305.887 204.718C305.747 205.386 305.557 206.043 305.318 206.682C304.921 208.056 304.438 209.403 303.871 210.715C303.509 211.697 303.871 211.749 303.354 212.731V213.144L301.648 217.384C301.234 218.056 301.648 217.797 300.924 218.107L303.767 209.784L305.318 204.201C305.453 203.345 305.643 202.499 305.887 201.668L309.247 183.419C309.247 182.282 309.247 181.61 309.247 180.421C309.247 179.232 309.609 178.508 309.712 177.784C309.712 176.027 309.712 173.752 309.712 172.098C310.15 166.143 310.15 160.165 309.712 154.211C309.659 153.372 309.52 152.54 309.299 151.729L308.834 145.991C308.834 144.957 308.368 144.337 308.317 143.354L307.851 140.666C307.851 140.098 307.541 138.443 307.438 137.926L305.577 129.293C304.801 126.657 304.078 122.934 303.199 120.556C302.32 118.178 299.322 109.545 297.254 105.048L291.722 93.7778L291.412 93.2091L291.05 93.054L290.74 92.5371L280.401 75.9942C279.987 75.2705 280.401 75.9942 279.78 75.1671C278.023 73.4094 275.128 68.3432 272.595 68.1364C272.595 69.4288 274.456 70.4627 275.231 71.7551L276.006 72.6857L288.155 91.0379C288.492 91.7162 288.872 92.3724 289.292 93.0023C289.74 93.7323 290.138 94.4924 290.481 95.277C290.792 95.949 291.05 96.6211 291.464 97.3965C292.61 99.6562 293.462 102.054 293.997 104.531C294.099 104.88 294.256 105.212 294.462 105.513L295.651 109.39C296.375 111.871 297.719 113.836 298.391 116.369L302.32 131.464C302.682 132.343 302.32 131.464 302.682 132.86L303.25 137.151C303.445 138.193 303.445 139.262 303.25 140.304L301.906 135.393L300.821 134.411C300.281 137.134 300.176 139.926 300.511 142.682L298.132 135.083L297.564 133.119C297.5 132.718 297.413 132.321 297.305 131.93L295.082 124.072L292.808 117.506C292.808 116.886 292.808 117.041 292.394 116.472L290.533 111.768C290.386 111.369 290.195 110.988 289.964 110.631L287.638 106.133C287.173 105.203 286.966 104.686 285.777 104.582C286.04 106.132 286.583 107.621 287.38 108.976C287.38 109.338 287.38 109.752 287.638 110.114C287.739 110.546 287.896 110.963 288.103 111.355C288.103 111.355 288.362 112.078 288.517 112.388L290.688 118.178C291.05 119.057 291.257 119.419 291.67 120.35C292.586 122.616 293.262 124.973 293.687 127.38C293.997 128.673 294.307 128.776 294.514 129.707C294.721 130.637 294.514 131.413 295.031 132.343C295.599 134.566 295.651 136.841 296.116 138.96C296.116 139.529 296.116 139.684 296.478 140.253C296.573 141.137 296.781 142.006 297.099 142.838C297.456 144.542 297.698 146.27 297.822 148.007L298.443 153.642C299.037 161.575 299.037 169.541 298.443 177.474L297.977 185.797C297.619 187.502 297.377 189.229 297.254 190.967C297.254 191.897 296.685 192.414 296.53 193.345L290.016 218.159L281.176 237.235C280.194 238.838 279.47 240.647 278.384 242.094L270.372 254.036C269.544 255.174 268.355 257.345 266.96 257.448L268.304 254.812C268.522 254.557 268.713 254.28 268.872 253.985L274.352 243.645C274.352 243.283 274.352 242.922 274.352 242.508C273.111 242.508 272.543 244.059 271.871 245.196C271.199 246.333 270.475 246.902 269.7 248.143C268.924 249.384 263.341 255.691 261.583 257.965L261.066 258.586V258.896L257.809 262.153L240.078 278.023C239.044 278.902 237.7 279.523 236.821 280.453C235.942 281.384 236.511 280.97 235.425 281.642C234.899 281.999 234.325 282.277 233.719 282.469C234.029 281.487 234.805 281.435 235.115 280.143L227.619 284.382C227.199 284.468 226.797 284.626 226.43 284.847C225.078 285.746 223.641 286.508 222.139 287.122C219.813 287.846 218.313 288.828 215.057 289.965C212.629 291.034 210.144 291.966 207.612 292.757C206.889 292.757 206.165 293.325 205.286 293.636L194.947 296.737C192.414 297.565 189.053 297.926 186.624 298.65L178.249 300.253C177.198 300.308 176.146 300.308 175.095 300.253C173.183 300.253 170.856 300.253 169.099 300.821C164.709 301.108 160.305 301.108 155.916 300.821C154.779 300.821 154.21 300.408 153.021 300.253C152.062 300.25 151.113 300.057 150.229 299.684C150.54 298.392 152.142 297.72 153.331 297.358H153.952C162.378 294.153 164.032 296.22 170.805 295.186C171.82 295.109 172.839 295.109 173.855 295.186L179.8 294.876C181.142 294.815 182.475 294.624 183.78 294.308L194.998 292.705C198.805 291.925 202.567 290.942 206.268 289.758L229.893 278.902L230.41 278.592C233.991 276.509 237.444 274.213 240.75 271.716L241.267 271.354L245.351 267.994C246.023 267.374 246.333 267.167 247.057 266.598C247.78 266.03 247.935 265.72 248.659 265.099L260.704 252.899L262.617 250.831C264.065 248.505 266.494 246.178 268.045 243.697C268.51 242.922 268.924 242.508 269.441 241.733L270.01 240.905C270.264 240.563 270.488 240.2 270.682 239.82L273.99 234.392C274.766 233.151 275.541 231.6 276.213 230.359L278.333 225.913C280.161 222.355 281.7 218.656 282.934 214.85C283.015 214.493 283.136 214.146 283.296 213.817L284.071 211.439C284.95 209.06 285.467 206.269 286.191 203.891L287.793 197.481C287.793 196.86 288.103 195.258 288.155 194.741C288.248 193.848 288.421 192.966 288.672 192.104C288.672 191.07 288.672 190.191 288.672 189.157C289.078 188.249 289.255 187.255 289.189 186.262C289.575 182.329 289.679 178.372 289.499 174.424L288 160.259C287.93 159.34 287.809 158.425 287.638 157.519C287.549 157.148 287.428 156.784 287.276 156.434C287.052 155.067 286.67 153.732 286.139 152.453C285.312 150.85 284.433 147.283 281.383 151.109C280.285 152.696 279.431 154.439 278.85 156.279L278.384 157.519C278.126 158.346 277.971 159.225 277.764 160.001L274.714 172.356C274.694 172.476 274.694 172.598 274.714 172.718L271.25 181.817C269.84 185.526 268.11 189.107 266.081 192.518L260.911 200.272L254.036 208.337L245.04 218.986L242.973 218.159C239.612 215.988 238.992 216.66 235.477 215.936C231.609 215.725 227.73 215.899 223.897 216.453C223.897 213.972 223.225 212.369 224.414 210.094C224.986 209.351 225.375 208.483 225.551 207.561V200.427L223.897 190.708C223.376 188.826 222.737 186.979 221.984 185.177C220.651 181.188 219.597 177.111 218.83 172.976L217.124 166.825C217.124 165.791 216.711 165.015 216.349 163.93L212.679 148.783C212.216 146.607 211.974 144.39 211.955 142.165L211.179 137.565C210.75 135.068 209.837 132.68 208.491 130.534L208.026 129.862C206.841 128.288 205.367 126.955 203.683 125.933C202.236 124.899 201.047 125.054 200.633 123.038C199.599 123.038 199.806 123.038 199.134 122.779L198.204 122.056C197.842 122.056 198.204 122.056 197.532 122.056L193.396 120.505C192.155 120.505 191.328 120.505 190.242 120.246C189.157 119.988 188.743 119.109 188.174 118.902C187.606 118.695 186.158 118.902 185.021 118.592C183.884 118.282 183.987 117.713 183.057 117.144C182.126 116.576 181.557 117.144 180.317 117.144C179.606 115.733 178.701 114.428 177.628 113.267C175.044 109.597 174.992 112.802 173.7 108.666C172.76 104.352 173.326 99.8458 175.302 95.8973C175.922 93.9846 176.956 92.1235 177.473 90.1073L180.782 84.9377C181.777 83.3685 182.429 81.6068 182.695 79.7681C182.932 77.707 182.932 75.6256 182.695 73.5645C182.178 71.8585 182.126 73.0476 182.023 70.7729C182.023 69.4288 181.609 68.9636 181.506 67.8779C181.506 65.9135 181.506 63.2253 181.195 61.3642C180.914 57.7251 179.358 54.3019 176.801 51.697L173.183 48.2333C172.2 47.4062 173.855 48.7503 172.872 47.9232L169.667 46.0104C167.98 44.8615 166.017 44.1834 163.981 44.0459C162.001 43.577 159.963 43.4028 157.932 43.529L152.194 44.5629C149.079 45.7279 146.217 47.4832 143.767 49.7325C143.044 50.4046 142.992 50.8182 142.372 51.4385C141.751 52.0589 142.372 51.4385 141.906 51.8521C139.757 54.3704 138.519 57.5391 138.391 60.8472C138.3 61.9137 138.3 62.986 138.391 64.0524C138.278 66.8706 137.827 69.665 137.047 72.3755L136.737 73.1509C136.168 74.4434 137.047 72.0653 136.737 73.5645C136.737 74.0298 136.737 73.151 136.737 74.1849C136.416 76.3095 136.557 78.4784 137.15 80.5435C138.856 85.7132 141.286 86.1267 141.751 87.9361L144.75 97.8618C145.958 100.587 146.336 103.608 145.835 106.547C145.45 108.332 144.86 110.066 144.078 111.716C143.655 111.435 143.181 111.241 142.682 111.148C142.268 111.716 141.958 112.233 141.493 112.802L140.924 113.371L139.27 115.128L138.908 115.645L137.409 117.248C136.556 118.384 135.547 119.394 134.41 120.246L124.847 122.366C119.639 123.162 114.83 125.63 111.147 129.397C110.357 130.571 109.715 131.839 109.234 133.17C109.234 133.584 108.924 133.636 108.717 134.101L105.254 145.733C105.228 146.112 105.123 146.482 104.943 146.818L101.48 161.035C101.335 161.893 101.127 162.739 100.859 163.568L98.6365 172.976C98.2746 174.527 98.0162 178.146 97.4992 179.232C96.6731 182.017 96.1021 184.872 95.7932 187.762C95.098 190.354 94.8704 193.05 95.1212 195.723C95.483 197.946 98.9467 200.634 100.291 202.443L106.081 208.544L116.42 217.125L116.885 217.539L122.624 222.708C122.938 223.005 123.124 223.413 123.141 223.846C122.557 223.601 121.988 223.325 121.435 223.018C119.987 222.088 120.297 221.261 118.333 221.002L111.457 219.865L109.441 219.4C105.305 218.211 99.8772 217.539 96.3102 216.556C93.8898 216.073 91.4354 215.779 88.9693 215.678C84.5683 214.873 80.0245 215.603 76.0969 217.745C73.7889 219.095 71.7405 220.845 70.0485 222.915L65.5509 229.532C65.5509 229.532 65.2407 230.411 65.189 230.566C64.9179 231.292 64.6934 232.035 64.517 232.789C63.3279 232.789 63.2763 232.375 62.7076 231.497L60.8982 228.705C58.5202 225.448 56.7625 221.881 54.6947 218.366C54.6072 218.184 54.5034 218.011 54.3845 217.849L53.9192 216.867C52.3683 212.731 49.8869 208.957 48.7496 204.666L47.9225 202.34C47.664 201.668 47.3021 200.737 47.0436 199.859L46.5784 197.997C46.6096 197.792 46.6096 197.583 46.5784 197.377C46.5453 197.189 46.528 196.999 46.5267 196.808L45.6995 192.828C45.441 191.535 45.2859 191.639 45.0275 190.346C45.0275 189.881 45.0275 189.726 45.0275 189.054L43.58 179.128C43.58 178.094 43.1664 177.474 43.063 176.544C42.9596 175.613 43.063 174.424 43.063 173.442C43.063 172.46 43.063 172.098 42.7528 170.598V161.19C42.7528 158.708 43.063 157.209 43.063 154.934C43.063 151.316 44.0969 147.283 44.4071 143.768C44.7173 140.253 45.8546 136.996 46.5784 133.429L50.0937 121.332C51.3344 118.23 52.2649 115.077 53.7124 112.13C54.0942 111.432 54.4225 110.706 54.6947 109.959L55.9871 107.271C57.6931 104.117 59.0372 100.602 61.1567 97.5516C62.0872 96.1558 62.5525 94.8117 63.483 93.6227C63.7072 93.3724 63.8983 93.0944 64.0517 92.7955L65.5509 90.3141C65.6348 90.1188 65.758 89.9429 65.9128 89.7972L81.4217 70.7212L89.1761 63.3804C90.185 62.3006 91.2737 61.2984 92.433 60.382C93.0533 59.9684 92.433 60.382 93.3118 59.8133L101.325 53.2996C102.152 52.7309 102.41 52.886 103.237 52.1106C103.788 51.6101 104.395 51.1763 105.047 50.8182L106.908 49.5257L107.787 48.9571L108.304 48.6469L108.821 48.285L111.044 46.8375C114.241 44.8171 117.556 42.9873 120.969 41.3577L129.913 37.5322C130.677 37.3022 131.421 37.0082 132.136 36.6534L133.842 36.033C134.565 35.7745 133.842 36.033 134.462 35.7745L139.373 34.4821C143.711 33.2456 148.162 32.4489 152.659 32.1041C154.451 31.7257 156.264 31.4495 158.087 31.277C161.013 31.3065 163.937 31.0816 166.824 30.6049C173.743 30.2815 180.677 30.7149 187.502 31.8973C190.759 32.6728 195.05 32.5694 198.617 33.6033C202.184 34.6372 206.061 34.9474 209.267 35.4644C210.955 35.9056 212.692 36.1314 214.436 36.1364C214.178 35.1025 214.023 35.2059 212.885 34.844L209.525 33.9135C208.336 33.5516 207.147 33.6033 206.475 32.7245C207.748 32.7554 209.014 32.9288 210.249 33.2414C215.106 33.9833 219.908 35.0542 224.62 36.4466L233.254 39.2899C236.51 40.3755 233.822 38.411 232.426 37.7907L223.328 33.8101L222.087 33.3448C221.388 32.9651 220.663 32.6369 219.916 32.3626L209.008 28.7438C206.895 27.974 204.714 27.4028 202.494 27.0379C200.582 27.0379 199.082 26.1073 197.325 25.7972C193.644 24.7366 189.896 23.9249 186.107 23.3674C184.246 23.3674 184.349 22.9539 180.11 22.7988C178.3 22.7988 175.974 22.2818 174.165 22.2301C165.376 22.2301 162.637 22.6437 155.347 22.7988C154.452 22.87 153.567 23.0435 152.711 23.3157C151.729 23.3157 150.591 23.3157 149.506 23.3157C148.42 23.3157 147.49 23.3157 146.662 23.3157L139.58 25.0734C139.122 25.1538 138.672 25.2749 138.236 25.4353C134.669 26.4692 131.309 26.9345 127.897 28.0718C126.966 28.382 126.294 28.5371 125.467 28.7438C123.394 29.3928 121.358 30.1521 119.367 31.0185H118.901C118.281 31.0185 118.901 31.0185 118.281 31.0185L100.239 39.0831L98.2229 40.2204L97.706 40.5823L96 41.3577C93.1477 42.678 90.4297 44.2708 87.8837 46.1138L80.336 51.697C79.0953 52.5241 77.7512 54.075 76.252 54.1784C76.72 53.5192 77.2767 52.9278 77.9063 52.4207L83.6963 47.9749C84.3178 47.4163 85.0137 46.9466 85.7641 46.5791L97.4992 39.2899L98.0162 38.928L106.081 33.7584C107.035 32.9463 108.118 32.2997 109.286 31.8456V31.3804C106.339 31.3804 103.599 33.9135 100.187 33.9135C100.498 32.6728 100.859 32.8796 101.997 32.3626C104.375 31.2253 106.649 29.7261 109.079 28.8472L113.835 26.7794C114.73 26.5179 115.611 26.2072 116.472 25.8489C119.108 24.97 121.641 23.8844 124.381 23.264C124.828 23.1836 125.263 23.0445 125.674 22.8505L129.758 21.5064L132.653 20.9894H133.376C134.255 20.9894 133.376 20.9894 133.997 20.9894L139.58 19.3868H141.286C140.929 19.1156 140.506 18.9439 140.061 18.8894C139.616 18.8349 139.165 18.8995 138.753 19.0766L131.67 20.6792H130.947L112.233 26.3141L110.94 26.7277L100.808 31.0185C99.9247 31.3269 99.0614 31.6894 98.2229 32.1041L89.9515 36.1881L88.6591 36.8602L68.9111 49.6291C66.4814 51.18 64 54.1267 62.6042 54.4369C67.7326 49.2487 73.3409 44.5579 79.3538 40.4272L80.336 39.6518C80.639 39.3694 80.9889 39.142 81.37 38.9797C85.4714 36.1638 89.7351 33.5917 94.1389 31.277L95.2763 30.7083L95.7932 30.3464C98.3824 28.8575 101.078 27.5616 103.858 26.4692L114.714 21.9716H115.334L119.522 20.6792L120.763 20.214H121.331L129.241 17.6291H129.706L145.887 14.4757C148.11 14.4757 150.333 14.0621 152.504 13.7519L166.617 13.3384C167.754 13.3384 168.943 13.3384 170.081 13.3384C171.218 13.3384 171.838 13.6485 173.441 13.6485C175.044 13.6485 176.026 13.6485 177.111 13.6485L180.368 14.1655L193.241 16.0266C194.016 16.0266 195.515 16.3367 196.239 16.4401L205.183 18.6114C206.118 18.7583 207.036 19.0009 207.922 19.3351L209.887 19.9038C211.903 20.7826 214.384 21.2479 216.452 22.1267L217.073 22.3852L221.053 23.8327C223.069 24.4014 235.166 30.4498 236.562 30.5532C235.865 29.7896 235.021 29.1743 234.081 28.7438L229.273 25.8489C226.637 24.4531 224.103 23.5742 221.157 22.2818L217.124 20.9377C214.385 20.1106 212.885 19.18 209.111 18.1461C208.336 18.1461 209.111 18.1461 208.233 17.8359L196.963 14.7858C194.614 14.1815 192.232 13.7155 189.829 13.39C187.192 13.39 184.659 12.5112 182.126 12.3044L178.352 11.7875C177.026 11.8662 175.697 11.8662 174.372 11.7875C167.205 11.1304 160.001 10.9922 152.814 11.3739C151.367 11.3739 150.591 11.8909 149.144 11.9943L139.218 12.8731C137.874 12.8731 138.96 13.1833 137.46 13.39C134.96 13.4798 132.479 13.8615 130.068 14.5274L124.071 15.7681C123.451 15.7681 124.071 15.7681 123.347 15.7681C124.433 14.2172 124.536 16.2333 125.053 14.3206C123.916 14.5791 122.468 14.8375 121.331 15.1994C117.764 16.2333 114.249 16.802 110.682 18.1461L108.562 18.6114L103.91 20.6792H103.393L95.8966 23.7293C92.2262 25.9006 88.1422 27.6582 84.42 29.8812L82.7141 31.0185H82.1454L79.4055 32.8795C78.9454 33.1778 78.4612 33.4372 77.958 33.655L72.3748 37.9458C70.2096 39.4373 68.1378 41.0601 66.1712 42.8052C65.189 43.7875 64.6204 43.7358 63.5864 44.8214C62.5525 45.907 62.1389 45.907 59.7092 48.3367L55.2116 52.369C54.5913 52.9377 54.6947 53.1445 54.0743 53.7648L53.1438 54.592L47.4572 60.5888L46.9919 61.2091L45.2342 63.1736C43.76 64.7912 42.4119 66.5194 41.2019 68.3432L30.0872 85.0928C27.1485 89.9967 24.5406 95.0916 22.2811 100.343C20.8048 103.63 19.5104 106.995 18.4039 110.424L16.1292 117.248C15.3222 119.669 14.6661 122.138 14.1648 124.64L10.3393 141.855C10.0808 147.025 9.15024 151.471 9.20194 156.951C9.20194 158.863 8.94346 159.535 8.89176 161.19C8.79878 170.017 9.2823 178.842 10.3393 187.607C10.6494 190.14 11.1147 191.122 10.3393 191.38C10.2315 189.94 10.0416 188.508 9.7706 187.09C9.79648 186.728 9.79648 186.365 9.7706 186.004C9.83625 185.697 9.83625 185.38 9.7706 185.073L8.27141 174.01C7.85819 167.624 7.85819 161.218 8.27141 154.831C8.58158 152.556 8.27141 150.127 8.27141 147.852C8.27141 147.18 8.68498 146.301 8.78837 145.733C8.85242 143.481 9.05962 141.237 9.40872 139.012L14.9919 113.164C15.2396 112.603 15.4134 112.012 15.5089 111.406L20.6785 97.2931C20.9887 96.5177 21.0404 96.3109 21.4023 95.4837L28.3813 82.7148C28.7431 82.1461 29.0016 81.5774 29.3118 81.0605C31.6898 76.9248 33.189 75.1671 35.5153 71.6001V71.2899L37.0145 69.3254C38.5918 66.9274 40.3184 64.6309 42.1842 62.4498C42.7011 61.9329 42.8562 61.9846 43.3215 61.3125L44.4588 59.6065L46.475 57.3319L47.0953 56.8149C47.9818 55.7099 48.9682 54.6889 50.042 53.7648L52.9887 50.7665C53.2389 50.5509 53.4643 50.3082 53.6607 50.0427L55.7803 48.13C56.1422 47.8198 55.7803 48.1299 56.1939 47.7164L67.1018 38.928C67.6187 38.6178 67.7738 38.3077 68.3425 37.8941L94.1906 22.3852C94.648 22.0645 95.1543 21.8201 95.6898 21.6615L108.149 16.4918C112.026 15.1477 116.11 14.6825 119.987 13.5968C121.435 13.1833 122.727 13.3384 124.278 12.9765C127.018 12.4078 129.447 11.5807 132.136 11.2188C133.687 10.9603 135.289 10.6501 136.582 10.4951V11.1154C135.964 11.032 135.335 11.0911 134.744 11.2883C134.152 11.4854 133.614 11.8153 133.17 12.2527C134.633 12.1926 136.079 11.9138 137.46 11.4256C139.373 10.8569 141.286 10.9086 143.044 10.1849C144.801 9.46113 144.75 10.34 144.75 9.15096C143.974 9.51283 144.284 9.15096 143.406 9.51283L138.805 10.5468C139.321 9.82301 139.477 9.77131 140.769 9.71961V8.84078C135.289 8.84078 136.116 9.46113 133.066 9.40944C130.016 9.35774 128.362 10.34 125.777 10.34L118.591 11.4256C118.076 11.6084 117.535 11.713 116.989 11.7358C115.49 11.7358 116.317 11.7358 115.386 12.1493C114.134 12.4487 112.848 12.5877 111.561 12.5629Z" fill="#D05D2B"/>
</svg>
