<svg xmlns="http://www.w3.org/2000/svg" viewBox="0 0 61.9 63.1"><g id="Layer_2" data-name="Layer 2"><g id="Layer_1-2" data-name="Layer 1"><path d="M21.58,2.43a20.89,20.89,0,0,1,2.28-.58,35.55,35.55,0,0,1,4-.66l2.24-.08c.28,0,.28-.06.55-.06s.31.05.49.05a1.7,1.7,0,0,1,.51,0,16,16,0,0,0,1.7,0c.27,0,.27,0,.54,0a27.49,27.49,0,0,1,3.06.41l2,.41c.21.06.22.08.43.13a2.88,2.88,0,0,1,.49.11l1.31.4c.46.11.79.34,1.28.48l1.23.48c.15,0,0,0,.19.09l.22.1c.54.23,1,.55,1.57.8l1.07.64c.15.09.23.17.36.24l.18.1,3,2a1,1,0,0,0,.4.21c.06-.27-.09-.34-.4-.59l-1.27-.94a4.81,4.81,0,0,1-.68-.47,1.08,1.08,0,0,0-.34-.21l-.07,0-.11-.06,0,0,0,0L45.43,4.07c-.36-.17-.72-.41-1.1-.55l-.19-.09-.56-.27a1,1,0,0,0-.2-.07l-.59-.24c-.19-.07-.24-.11-.42-.18L37.9,1.31l-1.18-.2A7.09,7.09,0,0,0,35.78,1a3.61,3.61,0,0,1-.5-.11,2.12,2.12,0,0,1-.5,0L33.31.61a20.83,20.83,0,0,0-2.25,0c-.2,0-.12.09-.45.1a3.26,3.26,0,0,0-1,.11c-.17,0-.38,0-.55,0s-.19.07-.38.09-.33,0-.49,0a3.18,3.18,0,0,1-.51,0c-.37,0-.28.05-.51.09-.42.09-1,0-1.49.16a3.17,3.17,0,0,1-.53,0c-.27,0-.17.09-.44.11l-1.65.06.27-.17A5.71,5.71,0,0,1,24,1.08c.16-.05.19-.09.35-.14l.94-.23h0l1.2-.28c.23-.06.57-.07.83-.11L28.16.2c.2,0,.41,0,.61-.05L29,.06A2.25,2.25,0,0,0,28.3,0C28,0,28,.1,27.69.12a6.56,6.56,0,0,0-.68,0L26.1.29c-.23,0-.06.05-.29.09L24,.72l-.13,0-.12,0L22.88,1c-.17,0-.1,0-.26.07l-.73.21h0L19.92,2c-.57.26-1.25.44-1.8.73L17.64,3l-1,.47a13.71,13.71,0,0,0-1.84,1l-.22.11a26.59,26.59,0,0,0-3,2.21l-.06.06,0,0c-.18.18-.24.15-.41.31L10,8.2a1.12,1.12,0,0,1-.15.19c-.11.12-.1.07-.21.17l-.88.89a.86.86,0,0,0-.19.19,2,2,0,0,1-.35.37c-.23.18-.14.22-.31.4l-.36.36c-.13.17-.19.23-.33.39l-.8,1c-.11.16,0,.07-.15.23s0,0-.17.16l-.73,1.09a2.12,2.12,0,0,1-.12.2c-.36.51-.64,1.08-1,1.57a2.24,2.24,0,0,0-.27.45L3.25,17.3a3.42,3.42,0,0,0-.25.47L1.18,22.61c0,.05,0,.07,0,.12L1,23.31a1.79,1.79,0,0,1-.09.3c0,.06-.05.22-.06.27l-.07.31c0,.14,0,0,0,.13l-.12.43c0,.23,0,.41-.07.65L.17,27.88c0,.34-.09.33-.11.6L0,32.73c0,.3.06.35.06.65s0,.53,0,.71.11.18.11.62a2.65,2.65,0,0,0,.1.61c0,.11,0,.22,0,.32,0,.29,0,.08.09.3s0,.49.07.64a5.31,5.31,0,0,1,.12.6,4.34,4.34,0,0,0,.08.63s0,.11,0,.13l.43,1.77v0l0,0,.18.54s0,0,0,0l.25.86c.11.48.31.85.44,1.32a9.79,9.79,0,0,0,.42,1l.33.77a25.23,25.23,0,0,0,1.46,2.89L5.6,49.43a.67.67,0,0,0,.14.19.44.44,0,0,0,.07.09.73.73,0,0,1,.1.13l.92,1.22.07.1,4.92,5c.17.15.25.17.41.3l.79.64a3.23,3.23,0,0,1,.43.29l2.18,1.41a9.81,9.81,0,0,0,.91.51c.18.09.29.18.46.26l1.45.7a1.57,1.57,0,0,1,.23.09l.33.17a9.79,9.79,0,0,0,1.06.43l2.55.86.25.08.12,0c.55.18,1.19.28,1.76.44l1.06.2.31.08,1.26.17c.23,0,.47,0,.68,0l.62.09c.45,0,.94.06,1.33.1a33.19,33.19,0,0,0,3.46-.1,2.29,2.29,0,0,0,.37,0c.14,0,.13-.07.3-.09s.48,0,.67,0l1.24-.18a5.74,5.74,0,0,1,.62-.1l2.67-.64h0l.17-.05.24-.09,1-.27c.49-.19,1-.3,1.47-.52l1.33-.54h0l0,0c.35-.2.75-.32,1.12-.53s.64-.28.95-.48L47,58.69c.24-.1.36-.24.58-.35l.45-.28L49.57,57l.12-.1.23-.16,0,0,3.34-3,.08-.09.28-.27,0,0,0,0,0,0,.12-.1c.13-.12.24-.23.36-.36l.07-.09,0,0,1.91-2.28,0,0c.31-.47.69-.91,1-1.4l.43-.67a21.72,21.72,0,0,0,1.13-2.07l.36-.73c.08-.17.13-.34.22-.5l.43-1c.06-.18.16-.3.22-.49s0-.17.09-.3l.09-.29c.16-.53.42-1,.54-1.6L61,40.14a5.52,5.52,0,0,0,.14-.58c.08-.61.29-1.13.38-1.76.07-.48.21-2.33.29-2.58a14.18,14.18,0,0,0,0-2.17h-.22a13.89,13.89,0,0,0,0-3.41h-.11a7.45,7.45,0,0,0-.11,1.21c0,.22-.09.33-.1.55s0,.47,0,.67,0,.22,0,.32c0,.28,0,.06-.07.26a4.49,4.49,0,0,0-.06.66c0,.28-.08,1-.26,1.12a3.07,3.07,0,0,1,.09-.79L61.05,32a4.21,4.21,0,0,1,.06-.82,17,17,0,0,0,0-2.59,2.49,2.49,0,0,0-.08-.35c-.07-.39,0-.88-.09-1.29,0-.17-.07-.11-.09-.35a6.62,6.62,0,0,0-.55-2.15c-.21-.42-.67-2-1.05-2.09a2.14,2.14,0,0,0,.22.66L60,24.81c0,.19.08.27.11.38s0,.55.1.79l.24,1.62c0,.38.11.43.11.83h-.27c0,.33.06.54,0,.93,0,1.35,0,2.65-.07,4,0,.27,0,.16,0,.39s-.09.13-.09.46a15.18,15.18,0,0,1-.36,2.61l-.15.85c0,.25,0,0,0,.17,0,0,0,0,0,0l-.15.57c-.05.17-.08.19-.12.37l-.11.45s0,0,0,0l-.07.37a2.64,2.64,0,0,1-.11.38,6.55,6.55,0,0,1-.28.78c-.07.19,0,.2-.1.39l0,.08a.08.08,0,0,1,0,0l-.33.82c-.08.13,0,.08-.14.14l.55-1.61s0,0,0,0l.3-1.08a3.88,3.88,0,0,1,.11-.49l.65-3.53c0-.22,0-.35,0-.58s.07-.37.09-.51c0-.34,0-.78,0-1.1a23.58,23.58,0,0,0,0-3.46,2.41,2.41,0,0,0-.08-.48l-.09-1.11c0-.2-.09-.32-.1-.51l-.09-.52c0-.11-.06-.43-.08-.53l-.36-1.67c-.15-.51-.29-1.23-.46-1.69s-.75-2.13-1.15-3l-1.07-2.18-.06-.11L56.3,18l-.06-.1,0,0-2-3.2c-.08-.14,0,0-.12-.16-.34-.34-.9-1.32-1.39-1.36,0,.25.36.45.51.7l.15.18,0,0,2.35,3.55a3.44,3.44,0,0,0,.22.38,3.61,3.61,0,0,1,.23.44c.06.13.11.26.19.41a5.72,5.72,0,0,1,.49,1.38.67.67,0,0,0,.09.19l.23.75c.14.48.4.86.53,1.35l.76,2.92c.07.17,0,0,.07.27l.11.83a1.66,1.66,0,0,1,0,.61l-.26-.95L58.19,26a5.08,5.08,0,0,0-.06,1.6l-.46-1.47v0l0,0-.11-.38a2.14,2.14,0,0,0-.05-.23L57.08,24v0l-.44-1.27c0-.12,0-.09-.08-.2l-.36-.91a1.12,1.12,0,0,0-.11-.22l-.45-.87c-.09-.18-.13-.28-.36-.3a2.5,2.5,0,0,0,.31.85c0,.07,0,.15.05.22a1,1,0,0,0,.09.24s.05.14.08.2l.42,1.12c.07.17.11.24.19.42a6.77,6.77,0,0,1,.39,1.36c.06.25.12.27.16.45s0,.33.1.51c.11.43.12.87.21,1.28,0,.11,0,.14.07.25a2,2,0,0,0,.12.5,7.46,7.46,0,0,1,.14,1l.12,1.09a30.85,30.85,0,0,1,0,4.61l-.09,1.61a7.39,7.39,0,0,0-.14,1c0,.18-.11.28-.14.46L56.1,42.2l-1.71,3.69c-.19.31-.33.66-.54.94L52.3,49.14c-.16.22-.39.64-.66.66l.26-.51a.91.91,0,0,0,.11-.16l1.06-2c0-.07,0-.14,0-.22-.24,0-.35.3-.48.52s-.27.33-.42.57-1.23,1.46-1.57,1.9l-.1.12,0,.06,0,0-.63.63,0,0-3.43,3.07,0,0,0,0c-.2.17-.46.29-.63.47s-.06.1-.27.23a1.27,1.27,0,0,1-.33.16c.06-.19.21-.2.27-.45l-1.45.82a.73.73,0,0,0-.23.09,4.73,4.73,0,0,1-.83.44c-.45.14-.74.33-1.37.55a13.76,13.76,0,0,1-1.44.54c-.14,0-.28.11-.45.17l-2,.6c-.49.16-1.14.23-1.61.37l-1.62.31a5.79,5.79,0,0,1-.61,0c-.37,0-.82,0-1.16.11a19.55,19.55,0,0,1-2.55,0c-.22,0-.33-.08-.56-.11a1.4,1.4,0,0,1-.54-.11c.06-.25.37-.38.6-.45l.12,0c1.63-.62,1.95-.22,3.26-.42a3.88,3.88,0,0,1,.59,0l1.15-.06a4.06,4.06,0,0,0,.77-.11l2.17-.31a21,21,0,0,0,2.18-.57l4.57-2.1.1-.06a20,20,0,0,0,2-1.33l.1-.07.79-.65c.13-.12.19-.16.33-.27s.17-.17.31-.29l2.33-2.36,0,0,.37-.4c.28-.45.75-.9,1.05-1.38.09-.15.17-.23.27-.38l.11-.16a1.48,1.48,0,0,0,.13-.21L53,45.34c.15-.24.3-.54.43-.78l.41-.86a14.39,14.39,0,0,0,.89-2.14.93.93,0,0,1,.07-.2l.15-.46c.17-.46.27-1,.41-1.46l.31-1.24c0-.12.06-.43.07-.53a2.88,2.88,0,0,1,.1-.51c0-.2,0-.37,0-.57a1.18,1.18,0,0,0,.1-.56A16,16,0,0,0,56,33.74L55.71,31a4.81,4.81,0,0,0-.07-.53,1.28,1.28,0,0,0-.07-.21,3.47,3.47,0,0,0-.22-.77c-.16-.31-.33-1-.92-.26a3.74,3.74,0,0,0-.49,1l-.09.24c-.05.16-.08.33-.12.48l-.59,2.39a.21.21,0,0,0,0,.07l-.67,1.76a13.27,13.27,0,0,1-1,2.07l-1,1.5,0,0L49.14,40.3l0,0,0,0-1.74,2.06L47,42.2c-.65-.42-.77-.29-1.45-.43a11.34,11.34,0,0,0-2.24.1c0-.48-.13-.79.1-1.23a1.16,1.16,0,0,0,.22-.49l0-1.38-.32-1.88a9,9,0,0,0-.37-1.07,17.54,17.54,0,0,1-.61-2.36L42,32.27c0-.2-.08-.35-.15-.56l-.71-2.93A6.42,6.42,0,0,1,41,27.5l-.15-.89a3.76,3.76,0,0,0-.52-1.36l-.09-.13a3,3,0,0,0-.84-.76c-.28-.2-.51-.17-.59-.56-.2,0-.16,0-.29-.05l-.18-.14c-.07,0,0,0-.13,0h0l-.8-.3c-.24,0-.4,0-.61-.05s-.29-.22-.4-.26-.39,0-.61-.06-.2-.17-.38-.28-.29,0-.53,0a3.27,3.27,0,0,0-.52-.75c-.5-.71-.51-.09-.76-.89a3.74,3.74,0,0,1,.31-2.47l0,0c.12-.37.32-.73.42-1.12l.64-1a2.55,2.55,0,0,0,.37-1,5.25,5.25,0,0,0,0-1.2c-.1-.33-.11-.1-.13-.54,0-.26-.08-.35-.1-.56,0-.38,0-.9-.06-1.26A3,3,0,0,0,34.2,10l-.7-.67c-.19-.16.13.1-.06-.06l-.62-.37a2.22,2.22,0,0,0-1.1-.38,4,4,0,0,0-1.17-.1l-1.11.2a5,5,0,0,0-1.63,1c-.14.13-.15.21-.27.33s0,0-.09.08l0,0a2.85,2.85,0,0,0-.68,1.74,3.64,3.64,0,0,0,0,.62A6.81,6.81,0,0,1,26.51,14l-.06.15c-.11.25.06-.21,0,.08,0,.09,0-.08,0,.12a2.89,2.89,0,0,0,.08,1.23c.33,1,.8,1.08.89,1.43L28,18.93a2.93,2.93,0,0,1,.21,1.68,4.6,4.6,0,0,1-.34,1,.73.73,0,0,0-.27-.11c-.08.11-.14.21-.23.32l-.11.11,0,0-.32.34-.07.1-.29.31a2.9,2.9,0,0,1-.58.58l-1.85.41a4.7,4.7,0,0,0-2.65,1.36,3.34,3.34,0,0,0-.37.73c0,.08-.06.09-.1.18l-.67,2.25a.52.52,0,0,1-.06.21l-.67,2.75a3.48,3.48,0,0,1-.12.49l-.43,1.82c-.07.3-.12,1-.22,1.21a9.27,9.27,0,0,0-.33,1.65,4.37,4.37,0,0,0-.13,1.54c.07.43.74.95,1,1.3l1.12,1.18,0,0,2,1.66.09.08,1.11,1,0,0a.32.32,0,0,1,.1.22,3.36,3.36,0,0,1-.33-.16c-.28-.18-.22-.34-.6-.39l-1.33-.22-.39-.09c-.8-.23-1.85-.36-2.54-.55a9.19,9.19,0,0,0-1.42-.17,3.78,3.78,0,0,0-2.49.4,4.34,4.34,0,0,0-1.17,1l-.87,1.28s-.06.17-.07.2a3.52,3.52,0,0,0-.13.43c-.23,0-.24-.08-.35-.25l-.35-.54c-.46-.63-.8-1.32-1.2-2a.64.64,0,0,0-.06-.1l-.09-.19c-.3-.8-.78-1.53-1-2.36l-.16-.45c-.05-.13-.12-.31-.17-.48l-.09-.36a.4.4,0,0,0,0-.12A.66.66,0,0,1,9,38.07l-.16-.77c-.05-.25-.08-.23-.13-.48,0-.09,0-.12,0-.25l-.28-1.92c0-.2-.08-.32-.1-.5s0-.41,0-.6,0-.26-.06-.55V31.18c0-.48.06-.77.06-1.21,0-.7.2-1.48.26-2.16s.28-1.31.42-2l.68-2.34c.24-.6.42-1.21.7-1.78a3.05,3.05,0,0,0,.19-.42l.25-.52,0,0c.33-.61.59-1.29,1-1.88.18-.27.27-.53.45-.76a.76.76,0,0,0,.11-.16l.29-.48a.3.3,0,0,1,.07-.1l0,0,3-3.69,0,0,0,0,1.5-1.42a5.7,5.7,0,0,1,.63-.58c.12-.08,0,0,.17-.11l1.55-1.26c.16-.11.21-.08.37-.23a1.83,1.83,0,0,1,.35-.25l.36-.25.17-.11.1-.06.1-.07.43-.28a18.58,18.58,0,0,1,1.92-1.06l1.73-.74a2.75,2.75,0,0,0,.43-.17l.33-.12c.14-.05,0,0,.12-.05l.95-.25a13,13,0,0,1,2.57-.46,9.34,9.34,0,0,1,1.05-.16,9.77,9.77,0,0,0,1.69-.13,18.4,18.4,0,0,1,4,.25c.63.15,1.46.13,2.15.33s1.44.26,2.06.36a4,4,0,0,0,1,.13c-.05-.2-.08-.18-.3-.25l-.65-.18c-.23-.07-.46-.06-.59-.23a3.3,3.3,0,0,1,.73.1,21,21,0,0,1,2.78.62l1.67.55c.63.21.11-.17-.16-.29l-1.76-.77-.24-.09a3.17,3.17,0,0,0-.42-.19l-2.11-.7a7,7,0,0,0-1.26-.33c-.37,0-.66-.18-1-.24A16.52,16.52,0,0,0,36,4.52c-.36,0-.34-.08-1.16-.11-.35,0-.8-.1-1.15-.11-1.7,0-2.23.08-3.64.11a2.28,2.28,0,0,0-.51.1c-.19,0-.41,0-.62,0s-.39,0-.55,0L27,4.85a1.51,1.51,0,0,0-.26.07c-.69.2-1.34.29-2,.51-.18.06-.31.09-.47.13A11.79,11.79,0,0,0,23.09,6L23,6c-.12,0,0,0-.12,0L19.39,7.56,19,7.78l-.1.07L18.57,8A9.44,9.44,0,0,0,17,8.92L15.54,10c-.24.16-.5.46-.79.48a1.7,1.7,0,0,1,.32-.34l1.12-.86a1.75,1.75,0,0,1,.4-.27l2.27-1.41.1-.07,1.56-1a2.17,2.17,0,0,1,.62-.37V6.07c-.57,0-1.1.49-1.76.49.06-.24.13-.2.35-.3.46-.22.9-.51,1.37-.68l.92-.4A4.91,4.91,0,0,0,22.53,5c.51-.17,1-.38,1.53-.5a1,1,0,0,0,.25-.08l.79-.26.56-.1.14,0c.17,0,0,0,.12,0L27,3.75l.33,0a.49.49,0,0,0-.49-.06L25.47,4l-.14,0L21.71,5.09l-.25.08L19.5,6a4.4,4.4,0,0,0-.5.21L17.4,7l-.25.13L13.33,9.6c-.47.3-.95.87-1.22.93a22.35,22.35,0,0,1,3.24-2.71l.19-.15a.69.69,0,0,1,.2-.13,24.52,24.52,0,0,1,2.47-1.49l.22-.11.1-.07a11.75,11.75,0,0,1,1.56-.75l2.1-.87.12,0L23.12,4l.24-.09.11,0L25,3.41h.09l0,0,3.13-.61c.43,0,.86-.08,1.28-.14l2.73-.08c.22,0,.45,0,.67,0s.34.06.65.06.5,0,.71,0l.63.1,2.49.36c.15,0,.44.06.58.08l1.73.42a2.68,2.68,0,0,1,.53.14l.38.11h0l0,0c.39.17.87.26,1.27.43l.12.05.77.28c.39.11,2.73,1.28,3,1.3a1.49,1.49,0,0,0-.48-.35L44.35,5l0,0c-.51-.27-1-.44-1.57-.69L42,4.05c-.53-.16-.82-.34-1.55-.54-.15,0,0,0-.17-.06L38.1,2.86a12,12,0,0,0-1.38-.27c-.51,0-1-.17-1.49-.21l-.73-.1a6.49,6.49,0,0,1-.77,0,28.89,28.89,0,0,0-4.17-.08c-.28,0-.43.1-.71.12l-1.92.17c-.26,0-.05.06-.34.1a6.21,6.21,0,0,0-1.43.22L24,3.05c-.12,0,0,0-.14,0,.21-.3.23.09.33-.28-.22.05-.5.1-.72.17-.69.2-1.37.31-2.06.57L21,3.6,20.1,4,20,4l0,0,0,0-1.45.59c-.71.42-1.5.76-2.22,1.19L16,6,15.89,6l-.53.36a1.91,1.91,0,0,1-.28.15L14,7.34a12.44,12.44,0,0,0-1.2.94c-.19.19-.3.18-.5.39s-.28.21-.75.68l-.87.78c-.12.11-.1.15-.22.27l-.18.16,0,0-1.1,1.16-.09.12-.34.38a8.28,8.28,0,0,0-.78,1L5.82,16.46a24.83,24.83,0,0,0-1.51,2.95,19,19,0,0,0-.75,1.95l-.44,1.32a11.94,11.94,0,0,0-.38,1.43L2,27.44c-.05,1-.23,1.86-.22,2.92,0,.37-.05.5-.06.82A39.23,39.23,0,0,0,2,36.29c.06.49.15.68,0,.73a7.34,7.34,0,0,0-.11-.83,1.47,1.47,0,0,0,0-.21.43.43,0,0,0,0-.18L1.6,33.66a28.73,28.73,0,0,1,0-3.71c.06-.44,0-.91,0-1.35,0-.13.08-.3.1-.41a10.27,10.27,0,0,1,.12-1.3l1.08-5a1.37,1.37,0,0,0,.1-.34l1-2.73c.06-.15.07-.19.14-.35L5.49,16c.07-.11.12-.22.18-.32.46-.8.75-1.14,1.2-1.83l0-.06.29-.38a13.23,13.23,0,0,1,1-1.33c.1-.1.13-.09.22-.22l.22-.33,0,0,.39-.44.12-.1a4.46,4.46,0,0,1,.57-.59l.57-.58a.86.86,0,0,0,.13-.14l.41-.37,0,0c.07-.06,0,0,.08-.08l2.11-1.7c.1-.06.13-.12.24-.2l5-3a1,1,0,0,1,.29-.14l2.41-1c.75-.26,1.54-.35,2.29-.56.28-.08.53-.05.83-.12.53-.11,1-.27,1.52-.34.3-.05.61-.11.86-.14v.12a.79.79,0,0,0-.66.22,2.84,2.84,0,0,0,.83-.16c.37-.11.74-.1,1.08-.24S28,2,28,1.77c-.15.07-.09,0-.26.07l-.89.2c.1-.14.13-.15.38-.16V1.71c-1.06,0-.9.12-1.49.11S24.83,2,24.33,2l-1.39.21a1.06,1.06,0,0,1-.31.06c-.29,0-.13,0-.31.08A2.94,2.94,0,0,1,21.58,2.43Z" style="fill:#321912;fill-rule:evenodd"/></g></g></svg>