<svg width="73" height="63" viewBox="0 0 73 63" fill="none" xmlns="http://www.w3.org/2000/svg">
<path d="M70.7368 36.0462C69.6998 35.8982 68.6449 35.8671 67.2249 35.7541C67.9379 34.7341 68.4078 34.0791 68.8598 33.4111C71.0318 30.1981 72.2168 26.6841 72.0328 22.7721C71.9318 20.6251 71.2469 20.1281 69.1299 20.6841C67.7779 21.0391 66.4468 21.4771 64.8258 21.9621C64.9988 20.8811 65.1608 20.0851 65.2478 19.2821C65.5368 16.6251 65.9288 13.9701 66.0328 11.3051C66.1318 8.77514 65.4528 8.40714 63.2278 9.49214C61.5208 10.3251 59.8448 11.2251 58.0168 12.1671C57.7658 11.4451 57.6039 10.8991 57.3889 10.3761C56.5949 8.44414 55.9008 6.45915 54.9478 4.60815C53.8608 2.49715 53.1759 2.40215 51.2209 3.80315C49.4749 5.05415 47.7808 6.37814 45.8568 7.82714C43.0678 5.52114 40.3158 3.34614 37.6848 1.03314C36.1798 -0.290859 35.8548 -0.417854 34.4708 1.09415C32.0178 3.77415 28.9488 5.62015 26.0438 7.69115C24.7058 6.65615 23.5278 5.71715 22.3228 4.81615C18.6468 2.06715 18.1348 2.18114 16.2628 6.42514C15.4598 8.24514 14.8429 10.1471 14.0889 12.1521C12.2909 11.2231 10.6109 10.3151 8.89685 9.47914C6.77285 8.44314 6.04685 8.80014 6.13385 11.0911C6.23885 13.8401 6.61985 16.5801 6.90785 19.3211C6.99185 20.1211 7.16785 20.9111 7.33985 21.9261C6.42185 21.6771 5.78884 21.5151 5.16084 21.3331C4.51784 21.1471 3.88585 20.9211 3.23985 20.7471C0.845855 20.1021 0.170851 20.5871 0.107851 23.0541C0.00985091 26.8701 1.17685 30.3061 3.31685 33.4361C3.76985 34.0981 4.22785 34.7561 4.86785 35.6821C4.08185 35.7991 3.62084 35.8891 3.15384 35.9321C2.57084 35.9871 1.97484 35.9531 1.39984 36.0481C0.0368431 36.2721 -0.40215 37.2771 0.40085 38.3921C0.73585 38.8581 1.21985 39.2261 1.66785 39.6011C3.88785 41.4541 6.40384 42.7571 9.19284 43.5011C13.0928 44.5421 17.0549 45.1521 21.1059 45.0951C21.7459 45.0861 22.3868 45.1562 22.9158 45.1842C23.0558 45.4302 23.1268 45.4981 23.1288 45.5681C23.1398 45.9011 23.1589 46.2381 23.1279 46.5691C22.7369 50.6451 24.2999 53.9871 27.2179 56.6601C28.8709 58.1751 30.8099 59.3801 32.6469 60.6881C33.7279 61.4581 34.8789 62.7572 35.9659 62.7252C37.1769 62.6902 38.3919 61.4711 39.5329 60.6661C41.4429 59.3181 43.4478 58.0521 45.1368 56.4591C47.9388 53.8141 49.4429 50.5231 49.0439 46.5401C48.9979 46.0841 49.1349 45.6101 49.1699 45.3021C52.3499 45.0271 55.3608 44.8901 58.3348 44.4811C62.6948 43.8821 66.8509 42.6411 70.3199 39.7371C70.8319 39.3081 71.3898 38.8942 71.7748 38.3632C72.5808 37.2482 72.1248 36.2442 70.7368 36.0462ZM64.8279 23.9721C66.4729 23.4011 68.1439 22.9021 69.9449 22.3321C70.6419 23.9551 70.1179 25.4191 69.8249 26.8141C69.2649 29.4801 67.9708 31.8211 66.1658 33.8691C64.7878 35.4331 64.7869 35.4331 62.4319 34.2711C63.8609 32.4771 66.1558 31.5591 66.7278 29.2891C66.5988 29.1121 66.4709 28.9341 66.3419 28.7571C65.8189 28.9931 65.2168 29.1341 64.7868 29.4841C63.7518 30.3281 62.8589 31.3511 61.7949 32.1531C60.3899 33.2121 60.2658 33.1421 58.3338 31.5941C60.7208 29.7861 62.3819 27.4461 63.6299 24.7921C63.8089 24.4101 64.3789 24.1281 64.8279 23.9721ZM63.7928 11.2711C65.7048 16.4631 61.6748 27.1791 56.6108 30.3041C55.3678 29.3591 54.2409 28.5031 53.2249 27.7311C54.5339 25.6291 55.8448 23.6271 57.0418 21.5581C57.5858 20.6181 57.4839 20.5591 56.5489 19.1831C56.0079 20.0351 55.5518 20.7731 55.0768 21.4981C54.3008 22.6821 53.6328 23.9651 52.7018 25.0121C51.3088 26.5781 51.0198 26.5271 49.0018 25.4931C49.8778 23.4541 50.6848 21.4041 51.6448 19.4291C51.9938 18.7101 52.6299 18.0701 53.2689 17.5621C56.4919 15.0041 60.1248 13.1291 63.7928 11.2711ZM52.9648 4.87814C54.6118 7.52114 55.6578 10.2301 56.1068 13.2901C54.6658 14.2671 53.3188 15.1811 51.9258 16.1261C51.3338 14.7051 50.9478 13.4311 50.2968 12.3101C49.6358 11.1711 48.7139 10.1841 47.8199 9.01914C49.1299 7.31914 51.0058 6.27914 52.9648 4.87814ZM26.7038 9.56114C29.5558 7.71614 32.1718 5.50615 34.9828 3.38814C34.7688 3.80414 34.6469 4.36714 34.2979 4.66714C32.3369 6.35714 30.3548 8.02615 28.3158 9.62115C26.5918 10.9701 24.9739 12.2981 24.0389 14.4231C22.1069 18.8161 24.3778 22.0262 27.6238 23.5592C28.2048 23.8332 28.8449 23.9812 29.7759 24.2942C28.9419 21.7242 28.0868 19.3951 29.0098 16.9051C29.1338 21.4261 32.0789 24.3791 34.7309 27.4671C35.6409 28.5271 36.4528 28.5971 37.2798 27.6271C39.9318 24.5161 42.9839 21.5931 42.9279 16.8181C43.8319 18.8461 43.8318 18.8461 42.6408 24.0331C46.6898 23.2011 49.3228 20.2401 48.7928 16.8691C48.4368 14.6061 47.5578 12.5011 45.6418 11.0361C44.1778 9.91714 42.6618 8.86715 41.1968 7.74915C39.6128 6.54015 38.0258 5.32214 37.0678 3.46214C37.3088 3.39214 37.5518 3.26715 37.5948 3.31615C39.8198 5.87915 42.5589 7.82114 45.4189 9.56114C48.5739 11.4811 50.8238 15.7651 49.2518 20.7911C48.5218 23.1271 47.0829 24.7031 44.5739 25.1741C43.4269 25.3891 42.1888 25.5181 41.1948 26.0581C39.3948 27.0361 37.7468 28.2941 35.7338 29.6351C33.8418 26.7851 30.7618 25.6612 27.3638 25.0872C25.0568 24.6972 23.7408 23.1931 23.0018 21.0481C21.2538 15.9771 23.5338 11.6121 26.7038 9.56114ZM19.2018 4.76614C21.1078 6.23214 22.7348 7.48414 24.2368 8.63914C22.7798 11.1411 21.4328 13.4541 19.9778 15.9531C18.8378 15.1821 17.4919 14.2711 16.0609 13.3041C16.4319 10.2831 17.5618 7.65614 19.2018 4.76614ZM9.59384 11.9021C12.5478 13.6361 15.4998 15.3761 18.4068 17.1881C19.7128 18.0021 20.4928 19.1661 20.9448 20.7491C21.4088 22.3731 22.4628 23.8291 23.2628 25.3671C21.2558 26.5581 20.9328 26.6102 19.5358 25.1002C18.6398 24.1312 17.9699 22.9491 17.2419 21.8351C16.9249 21.3491 16.8119 20.7011 16.4289 20.2931C16.1029 19.9451 15.5228 19.8351 15.0558 19.6201C14.9798 20.0821 14.6909 20.6571 14.8649 20.9861C15.7649 22.6751 16.7558 24.3191 17.7778 25.9401C18.1198 26.4831 18.6458 26.9111 19.2128 27.5271C17.9208 28.5041 16.7398 29.3961 15.3698 30.4321C9.02384 25.6091 8.38785 18.6621 7.73685 11.3031C8.58485 11.5681 9.14584 11.6391 9.59384 11.9021ZM1.89485 22.2231C4.06585 22.9311 5.95584 23.5171 7.81784 24.1811C8.16384 24.3041 8.44685 24.7091 8.67685 25.0401C10.2329 27.2891 11.7668 29.5521 13.3468 31.8671C12.0208 33.1901 11.8238 33.2781 10.3248 32.1341C9.19785 31.2751 8.26384 30.1661 7.14784 29.2891C6.81084 29.0241 6.15485 29.1651 5.64485 29.1191C5.72385 29.5761 5.65485 30.1491 5.90785 30.4691C6.99585 31.8491 8.17785 33.1541 9.26485 34.4171C7.55885 35.5321 7.42886 35.5322 5.97486 33.8502C3.18286 30.6222 1.80585 26.9001 1.89485 22.2231ZM20.2889 43.3242C16.3469 43.2302 12.4528 42.6441 8.68485 41.4331C6.60785 40.7661 4.70385 39.7521 2.72885 38.0251C3.63785 37.8251 4.21285 37.6241 4.79885 37.5821C8.25185 37.3331 11.2849 36.0431 13.9939 33.9381C15.7129 32.6031 17.3858 31.2081 19.1308 29.9091C21.3778 28.2371 23.8508 27.0101 26.6758 26.7341C29.8108 26.4271 32.3708 27.4881 34.4038 30.1761C30.5458 33.0651 26.4369 34.7781 21.8929 35.4741C19.6609 35.8161 17.4148 36.0821 15.1948 36.4851C14.7388 36.5681 14.0149 37.1161 14.0219 37.4361C14.0419 38.3381 14.8298 38.2871 15.5288 38.2071C21.8698 37.4821 28.1768 36.6471 33.6718 32.9801C33.9418 32.8001 34.2678 32.7041 34.7218 32.5001C34.5338 35.3561 33.4079 37.6031 31.3779 39.3731C28.2099 42.1371 24.4529 43.4232 20.2889 43.3242ZM45.9248 52.5201C44.5458 54.9031 42.5098 56.6291 40.2408 58.1031C38.9088 58.9681 37.5329 59.7662 35.8929 60.7682C33.4929 59.0292 30.8788 57.3691 28.5468 55.3801C26.2518 53.4231 24.8668 50.8261 24.8458 47.6891C24.8298 45.1961 25.1128 44.8222 27.4948 43.8632C28.1798 43.5882 28.8649 43.3141 29.5779 43.0271C29.9489 45.1931 30.2679 47.2351 30.6599 49.2621C30.8099 50.0361 30.8478 51.2481 31.9888 50.9951C33.1998 50.7261 32.5288 49.6491 32.3958 48.8851C32.2508 48.0611 32.0128 47.2511 31.9038 46.4231C31.5648 43.8641 31.6158 41.4612 33.7738 39.4902C34.7278 38.6182 35.2818 37.3092 35.9998 36.2252C37.1858 37.7712 38.4559 39.2741 39.5349 40.9041C40.0149 41.6291 40.3188 42.6091 40.3288 43.4771C40.3468 44.9682 40.0858 46.4641 39.9138 47.9541C39.8568 48.4511 39.7338 48.9431 39.6068 49.4281C39.4248 50.1221 39.3118 50.8941 40.2108 50.9981C40.5468 51.0371 41.2058 50.3781 41.3118 49.9401C41.7228 48.2361 41.9889 46.4961 42.2679 44.7631C42.3449 44.2821 42.2798 43.7792 42.2798 42.9472C43.7308 43.4992 44.9849 43.8581 46.1089 44.4601C46.5919 44.7181 46.9699 45.4391 47.1139 46.0191C47.6879 48.3401 47.0958 50.4961 45.9248 52.5201ZM65.7708 40.4551C60.2048 42.8131 54.3928 43.8241 48.3698 43.0041C45.4058 42.6001 42.7878 41.2381 40.5848 39.2061C38.6848 37.4531 37.5808 35.2801 37.4518 32.5931C37.7468 32.6701 37.9318 32.6721 38.0638 32.7581C43.1038 36.0641 48.7699 37.3661 54.6599 37.9601C55.4089 38.0361 56.1638 38.2771 56.8958 38.2111C57.3498 38.1701 57.7638 37.6951 58.1958 37.4151C57.8618 37.1061 57.5639 36.5881 57.1869 36.5221C54.8819 36.1161 52.5578 35.8122 50.2398 35.4752C46.1088 34.8752 42.3569 33.3001 38.8799 31.0341C38.5399 30.8121 38.2608 30.4961 37.8478 30.1291C39.7668 27.4171 42.3778 26.4541 45.4948 26.7391C47.9628 26.9651 50.1989 27.9341 52.2029 29.3611C53.9059 30.5731 55.5599 31.8601 57.1729 33.1891C60.2959 35.7631 63.7699 37.4361 67.8719 37.6331C68.2029 37.6491 68.5308 37.7351 68.8558 37.8071C68.9178 37.8211 68.9589 37.9271 69.2389 38.2791C68.0749 39.0231 67.0048 39.9321 65.7708 40.4551Z" fill="#331810"/>
</svg>
