<svg width="282" height="24" viewBox="0 0 282 24" fill="none" xmlns="http://www.w3.org/2000/svg">
<path d="M280.649 19.186C279.408 14.853 277.179 11.06 273.965 7.91299C269.303 3.34799 263.76 1.53899 257.309 3.04499C256.307 3.27899 255.507 3.14799 254.597 2.70199C252.154 1.50699 249.552 0.939985 246.812 0.957985C242.531 0.985985 238.666 2.37099 234.97 4.39699C230.413 6.89399 226.779 5.72599 224.582 2.14799C223.908 1.05099 222.957 0.677985 221.748 0.693985C220.969 0.703985 220.189 0.662986 219.409 0.655986C199.309 0.473986 179.207 0.367987 159.11 0.0299869C156.144 -0.0200131 153.925 0.905986 151.819 2.67699C151.289 3.12299 150.706 3.53699 150.285 4.07399C149.384 5.21999 148.238 5.47498 146.847 5.45098C142.867 5.38498 138.884 5.35199 134.906 5.45399C133.065 5.50099 131.66 5.09599 130.305 3.70499C127.83 1.16399 124.979 -0.0800141 121.083 0.00398592C100.902 0.434986 80.7124 0.496986 60.5254 0.648986C58.6044 0.662986 57.1454 0.987987 55.9104 2.78599C53.8214 5.82799 50.8324 6.46898 47.4204 5.03398C46.2254 4.53198 45.1084 3.84899 43.9294 3.30599C38.0724 0.611988 32.1384 -0.108016 26.1524 2.84698C25.1764 3.32798 24.3454 3.17599 23.4144 2.96199C18.5904 1.85399 14.0914 2.73399 10.0374 5.48999C4.95039 8.94899 1.89139 13.883 0.212395 19.73C0.0933947 20.143 -0.0616094 20.611 0.0253906 21.003C0.138391 21.51 0.477391 21.966 0.719391 22.444C1.05739 22.118 1.4704 21.839 1.7114 21.453C1.9304 21.101 1.97439 20.635 2.07539 20.214C2.85339 16.955 4.3574 14.04 6.4304 11.441C10.9914 5.72099 16.7204 3.17199 24.0714 5.06399C24.7554 5.23999 25.6734 5.18898 26.2844 4.86798C32.2024 1.75398 37.9834 2.54899 43.7394 5.30099C45.1424 5.97199 46.5234 6.73699 47.9944 7.20698C51.4914 8.32298 54.6654 7.46699 56.8424 4.58799C58.1494 2.86099 59.5264 2.54398 61.4544 2.53398C76.2694 2.45298 91.0834 2.28599 105.898 2.15399C111.703 2.10199 117.508 2.08698 123.313 2.02698C125.68 2.00198 127.204 3.30699 128.81 5.19599C127.942 5.23399 127.432 5.27398 126.921 5.27698C105.001 5.36998 83.0814 5.46999 61.1614 5.52899C59.7084 5.53299 58.5324 5.86899 57.3474 6.76499C56.1964 7.63499 54.8294 8.29899 53.4634 8.78699C49.8604 10.074 46.4734 9.23698 43.2414 7.43698C38.7024 4.90798 33.8724 4.44999 28.8964 5.64399C26.6714 6.17799 24.4814 6.25998 22.2184 6.17199C12.1234 5.78099 6.8134 11.478 4.3464 20.261C4.1744 20.874 4.32339 21.578 4.32339 22.341C4.99839 22.494 5.56939 22.703 6.15039 22.74C9.52139 22.957 12.8994 23.085 16.2664 23.344C17.7604 23.459 18.5674 22.989 19.2804 21.582C20.1214 19.921 21.2714 18.311 22.6244 17.037C24.8384 14.952 27.4984 14.684 30.4534 16.083C30.3654 17.906 30.2794 19.684 30.1934 21.451C27.8984 21.451 25.9054 21.451 23.8944 21.451C24.1714 18.782 27.5174 19.583 28.2334 17.401C24.4374 16.624 21.2874 19.381 21.5754 23.255C24.4284 23.491 27.3384 23.661 30.2504 23.439C31.2484 23.363 31.9734 22.694 32.0354 21.537C32.1284 19.808 32.2474 18.081 32.3764 16.354C32.4674 15.127 31.8644 14.459 30.7614 14.015C27.2504 12.604 23.4094 13.318 20.7344 16.185C19.3324 17.688 18.2244 19.465 16.9864 21.114C15.0554 21.114 13.0294 21.114 10.8974 21.114C11.0124 20.618 11.0014 20.331 11.1334 20.147C14.3704 15.661 18.2154 11.876 23.2544 9.39999C24.9924 8.54599 26.7134 8.29099 28.4964 8.96699C31.8914 10.253 35.3574 11.411 38.6104 12.998C44.8424 16.04 51.2084 16.378 57.8444 14.797C59.7624 14.34 61.7734 14.083 63.7444 14.071C81.4194 13.964 99.0964 14.064 116.767 13.79C121.378 13.718 125.286 14.963 128.879 17.527C130.838 18.925 132.556 20.659 134.395 22.228C135.079 22.811 135.48 24.068 136.637 23.639C137.745 23.228 137.442 22.049 137.509 21.13C137.54 20.699 137.536 20.262 137.504 19.831C137.367 17.971 137.213 16.113 137.067 14.275C139.472 14.275 141.732 14.275 143.912 14.275C143.768 16.647 143.587 18.796 143.532 20.948C143.507 21.928 143.174 23.339 144.461 23.588C145.086 23.709 146.076 22.813 146.654 22.16C149.71 18.705 153.498 16.332 157.688 14.56C158.615 14.168 159.682 13.921 160.684 13.922C179.572 13.934 198.46 13.972 217.348 14.075C219.318 14.086 221.283 14.565 223.255 14.78C226.343 15.117 229.43 15.609 232.526 15.679C236.431 15.767 239.907 14.051 243.413 12.529C246.345 11.257 249.354 10.16 252.34 9.01499C254.325 8.25299 256.178 8.59798 258.065 9.54898C262.669 11.868 266.242 15.328 269.327 19.363C269.667 19.808 269.885 20.346 270.331 21.149C267.953 21.149 265.919 21.149 264.061 21.149C262.819 19.476 261.771 17.76 260.429 16.319C257.673 13.358 254.274 12.685 250.447 13.965C249.226 14.374 248.529 15.059 248.64 16.422C248.773 18.061 248.801 19.712 248.997 21.342C249.183 22.88 249.787 23.499 251.348 23.535C253.683 23.588 256.027 23.51 258.36 23.363C259.634 23.283 260.031 22.605 259.545 21.392C258.622 19.09 257.058 17.427 254.478 17.062C253.979 16.991 253.429 17.277 252.763 17.431C253.619 19.628 257.031 18.749 257.065 21.559C254.995 21.559 253.037 21.559 250.844 21.559C250.844 19.642 250.844 17.863 250.844 15.891C253.568 14.776 256.24 14.944 258.442 17.077C259.78 18.372 260.886 19.989 261.779 21.634C262.45 22.868 263.101 23.471 264.554 23.357C268.007 23.086 271.472 22.962 274.929 22.74C275.505 22.703 276.068 22.472 276.812 22.286C276.922 19.732 275.962 17.762 275.057 15.828C272.531 10.432 268.432 6.74199 262.374 6.37899C257.546 6.08999 252.753 5.69399 247.957 5.10699C243.829 4.60199 240.143 6.17499 236.55 8.00899C232.096 10.282 227.785 9.79299 223.838 6.88399C222.472 5.87699 221.15 5.53898 219.543 5.53398C197.71 5.46898 175.877 5.37399 154.044 5.27399C153.513 5.27199 152.983 5.13199 152.212 5.02299C154.174 2.92799 156.124 1.94399 158.804 1.98999C172.23 2.21899 185.659 2.29499 199.088 2.41499C206.193 2.47799 213.297 2.54299 220.402 2.55299C221.783 2.55499 222.781 2.83299 223.704 4.04499C226.483 7.69399 230.081 8.55398 234.303 6.77098C235.577 6.23298 236.778 5.52699 238.04 4.95899C243.514 2.49699 249.031 1.87699 254.529 4.82999C255.584 5.39599 256.499 5.24099 257.512 4.94499C260.077 4.19599 262.659 4.31199 265.213 4.94899C270.25 6.20699 273.709 9.54699 276.2 13.866C277.481 16.086 278.242 18.612 279.171 21.026C279.452 21.757 279.455 22.631 280.678 22.367C281.463 21.322 280.944 20.217 280.649 19.186ZM18.6674 9.88099C14.9174 12.474 11.8614 15.755 9.29839 19.496C8.52739 20.621 7.78239 21.393 6.38539 20.506C7.95639 12.844 14.2254 7.45598 20.6984 8.49998C19.9004 9.04099 19.2804 9.45599 18.6674 9.88099ZM274.638 20.524C273.71 21.058 272.849 21.129 272.176 20.123C269.075 15.489 265.241 11.581 260.308 8.49199C266.825 7.47299 273.122 12.892 274.638 20.524ZM70.2534 11.995C66.9634 11.999 63.6634 12.085 60.3894 12.378C58.0774 12.585 55.8084 13.249 53.5084 13.634C49.6674 14.276 45.8944 13.957 42.2874 12.459C38.4744 10.876 34.7074 9.18299 30.5694 7.38499C34.1804 6.57599 37.2924 6.89198 40.3164 8.14598C41.4344 8.60898 42.5224 9.14899 43.6044 9.69199C48.6534 12.228 53.5084 11.759 58.0824 8.59399C59.3724 7.70099 60.6344 7.31299 62.1684 7.31299C84.1724 7.30699 106.176 7.26099 128.18 7.24499C131.664 7.24199 132.483 7.97399 133.641 12.006C132.563 12.006 131.555 12.006 130.547 12.006C110.45 11.996 90.3514 11.971 70.2534 11.995ZM127.528 14.121C129.99 14.121 132.308 14.121 134.898 14.121C135.214 16.086 135.522 18.007 135.918 20.47C132.847 18.146 130.282 16.205 127.528 14.121ZM139.984 12.249C139.563 12.179 139.12 12.204 138.69 12.236C136.975 12.363 135.68 11.925 135.151 10.045C134.925 9.23999 134.37 8.52798 133.96 7.76398C135.717 7.14998 143.631 7.01699 146.911 7.52299C146.17 11.608 143.685 12.866 139.984 12.249ZM145.192 20.416C145.512 18.102 145.784 16.135 146.07 14.069C148.673 14.069 150.976 14.069 153.546 14.069C150.783 16.168 148.186 18.141 145.192 20.416ZM161.407 7.15599C180.293 7.19999 199.18 7.27598 218.066 7.29798C220.03 7.29998 221.683 7.71198 223.379 8.85398C227.722 11.779 232.393 12.164 237.168 9.78899C239.887 8.43699 242.597 7.03699 245.73 6.98999C247.176 6.96799 248.624 7.08898 250.071 7.14498C250.099 7.30298 250.127 7.46199 250.154 7.61999C245.616 9.48299 241.134 11.5 236.523 13.159C232.935 14.45 229.114 14.225 225.485 13.293C221.056 12.155 216.571 12.036 212.084 12.022C191.552 11.96 171.019 12 150.487 12.004C149.477 12.004 148.467 12.004 146.878 12.004C147.898 10.351 148.537 9.03899 149.452 7.95999C149.858 7.48199 150.815 7.30598 151.531 7.28398C154.822 7.18298 158.115 7.14799 161.407 7.15599Z" fill="#78716C"/>
</svg>
