<svg width="85" height="68" viewBox="0 0 85 68" fill="none" xmlns="http://www.w3.org/2000/svg">
<g clip-path="url(#clip0_194_9)">
<path d="M83.7937 29.5937C83.3567 29.0607 82.5017 28.3927 81.9797 28.4967C80.4097 28.8097 78.9097 29.4727 77.0627 30.1097C77.0777 30.1187 76.7297 29.8967 76.3857 29.6697C73.5207 27.7827 70.7627 25.7017 67.7677 24.0497C62.6687 21.2377 57.3897 21.0817 52.1197 23.7717C51.5767 24.0487 50.9727 24.2057 50.3967 24.4187C51.8307 21.9037 53.5597 19.7697 55.2117 17.5777C56.0537 16.4597 56.8487 15.7147 58.4827 15.8347C60.3427 15.9707 61.7427 14.4967 61.7027 13.0117C61.6587 11.3607 59.7237 9.66471 57.8927 9.67171C55.9577 9.67871 55.0347 10.7917 55.0857 13.0007C55.1007 13.6427 55.2597 14.4667 54.9387 14.8987C53.0677 17.4147 51.0727 19.8387 49.1197 22.2937C49.3817 19.2047 50.1977 16.2127 48.9457 13.4507C47.7207 10.7487 45.9247 8.30572 44.3047 5.62572C45.5337 3.12372 45.5407 1.73772 44.2147 0.636723C43.1727 -0.229277 41.5367 -0.209286 40.5137 0.680714C39.2707 1.76271 39.2977 3.19572 40.6127 5.92472C33.8537 14.4827 34.8167 15.4697 36.0297 22.7637C34.2397 20.5157 32.7277 18.5277 31.1147 16.6247C30.1087 15.4377 29.3207 14.3177 29.6667 12.5987C29.8917 11.4787 29.3407 10.4557 28.2187 9.91672C27.0227 9.34272 25.3797 9.70272 24.2767 10.7477C23.3637 11.6117 22.7827 12.6467 23.2557 13.8917C23.7917 15.3007 25.0037 15.8467 26.4537 15.9017C26.7867 15.9147 27.1397 15.7977 27.4527 15.8717C27.8327 15.9607 28.2987 16.0917 28.5247 16.3687C30.6667 19.0077 32.7667 21.6807 34.8937 24.3647C34.5847 24.5577 34.4957 24.6497 34.4577 24.6317C33.6237 24.2437 32.7987 23.8347 31.9647 23.4477C27.6187 21.4277 23.1777 21.2367 18.8347 23.2397C16.1907 24.4597 13.7267 26.0847 11.2357 27.6167C9.88767 28.4457 8.65367 29.4607 7.40267 30.3677C3.80867 27.9937 2.29967 27.8197 0.960673 29.5727C-0.548326 31.5487 -0.256325 34.0367 1.67267 35.6277C3.49067 37.1277 4.80167 36.7117 7.52867 33.6927C8.15467 34.2077 8.79567 34.7187 9.41867 35.2507C12.6347 37.9877 16.1617 40.2087 20.1057 41.7467C24.2277 43.3547 28.3727 43.8187 32.5827 42.0637C32.7697 41.9857 33.0277 42.0787 33.6867 42.1177C31.1177 44.3157 30.0167 47.6567 26.1967 47.8507C24.9947 47.9117 24.2417 49.0847 24.0937 50.3747C23.9407 51.7147 24.6507 52.6067 25.7497 53.2277C28.1127 54.5647 30.4317 53.0117 30.4337 50.1037C30.4337 49.5427 30.1887 48.7837 30.4627 48.4527C32.1707 46.3917 33.9937 44.4257 35.7797 42.4287C35.9437 42.4847 36.1077 42.5397 36.2717 42.5957C33.7977 49.4497 34.7317 55.5617 40.1347 60.4907C38.1327 63.3617 38.0637 65.0267 39.7237 66.4427C41.1277 67.6407 43.7287 67.6837 45.0547 66.3827C45.6157 65.8327 46.2637 64.9427 46.1967 64.2737C46.0737 63.0327 45.4547 61.8397 44.9577 60.3777C46.5677 57.9457 49.3307 55.6477 49.5797 52.2607C49.8117 49.1097 49.2947 45.9037 49.0977 42.5717C50.4677 44.0827 51.7787 45.5837 53.1517 47.0247C54.0397 47.9567 54.6147 48.7927 54.4147 50.2937C54.1467 52.2957 55.7997 53.8447 57.5307 53.7087C59.2057 53.5767 60.7087 52.1767 60.7517 50.7097C60.7927 49.2917 59.5957 47.9637 57.9437 47.6337C57.2927 47.5037 56.4007 47.6697 56.0107 47.2947C54.3917 45.7357 52.7187 44.1857 51.5177 42.1357C51.8157 42.0747 51.9037 42.0277 51.9737 42.0467C52.2947 42.1347 52.6137 42.2307 52.9277 42.3417C56.3017 43.5297 59.6677 43.4097 63.0387 42.3147C67.6497 40.8167 71.7067 38.3587 75.3797 35.2287C75.9977 34.7027 76.6247 34.1877 77.2407 33.6737C79.9797 36.7157 81.2817 37.1337 83.1027 35.6347C84.9677 34.0957 85.3197 31.4577 83.7937 29.5937ZM14.6167 33.6917C21.7057 31.7487 28.6417 31.9467 35.3647 35.1237C28.1707 38.5267 21.3707 36.4327 14.6167 33.6917ZM36.8737 33.5867C29.0257 29.8307 20.9267 29.8157 12.6897 32.0597C12.0677 32.2287 11.4257 32.3247 10.5907 32.4957C15.5647 26.0687 30.5507 26.2947 39.3077 32.8187C38.5787 33.8057 37.9207 34.0887 36.8737 33.5867ZM42.5967 53.8787C39.9887 49.8647 39.4547 40.6187 42.5277 37.2537C45.4467 42.8087 44.4667 48.2627 42.5967 53.8787ZM42.6577 28.8597C39.3127 24.7397 39.1627 17.5697 42.5257 14.0647C46.6977 19.0907 44.2417 23.9037 42.6577 28.8597ZM49.0547 35.0047C56.2247 31.9537 63.0947 31.7607 70.5037 33.4997C62.9877 37.3197 53.8397 38.0707 49.0547 35.0047ZM72.1277 32.0677C63.8827 29.8267 55.7717 29.8117 47.9177 33.5907C46.8447 34.1067 46.2077 33.7767 45.5667 32.9957C52.0407 27.2327 65.5267 25.2227 74.0177 32.4507C73.3877 32.3247 72.7467 32.2357 72.1277 32.0677Z" fill="#7C2D12"/>
</g>
<defs>
<clipPath id="clip0_194_9">
<rect width="85" height="68" fill="white"/>
</clipPath>
</defs>
</svg>
