<svg width="65" height="63" viewBox="0 0 65 63" fill="none" xmlns="http://www.w3.org/2000/svg">
<path d="M61.6764 29.1344C59.2074 27.1864 56.5774 25.4404 53.7904 23.4404C54.7894 22.7984 55.7094 22.1014 56.7234 21.5984C57.2434 21.3404 57.9504 21.3054 58.5454 21.3814C60.1344 21.5834 61.1784 21.0924 61.5114 19.8464C61.8614 18.5324 61.0404 17.0864 59.7084 16.6724C58.3254 16.2434 56.7634 16.8744 56.5654 18.3194C56.3144 20.1574 54.9134 20.3804 53.3384 21.4534C53.4464 19.9914 53.5504 19.0834 53.5724 18.1744C53.6024 16.9234 53.6904 15.6564 53.5354 14.4234C53.3354 12.8214 52.6934 12.2374 51.0814 12.0844C49.7524 11.9584 48.4014 11.9494 47.0664 12.0154C45.6684 12.0844 44.2784 12.3044 42.9234 12.4544C40.7144 6.65738 38.5624 3.76138 34.5284 1.08738C32.3934 -0.32862 31.5894 -0.397616 29.5224 1.09238C25.7854 3.78638 22.6104 6.94539 21.4854 11.6494C21.4144 11.9454 21.2024 12.2074 21.1684 12.2724C18.3614 12.1904 15.7784 12.0154 13.1994 12.0724C11.3414 12.1134 10.6024 12.8234 10.3954 14.6464C10.2464 15.9614 10.4004 17.3144 10.4674 18.6474C10.5084 19.4554 10.6414 20.2594 10.7654 21.3544C9.1814 20.5294 7.80241 20.1704 7.47341 18.2904C7.21941 16.8434 5.66041 16.2384 4.29241 16.6724C2.96741 17.0934 2.17241 18.5424 2.53841 19.8654C2.88741 21.1234 3.8794 21.6024 5.5024 21.3494C5.9644 21.2774 6.5344 21.1534 6.8984 21.3474C8.0494 21.9604 9.1254 22.7124 10.4854 23.5714C9.8144 23.9914 9.47341 24.1834 9.15441 24.4074C6.56141 26.2404 3.9044 27.9924 1.4034 29.9444C-0.562596 31.4784 -0.46458 32.3664 1.70742 33.7294C3.61842 34.9284 5.62842 35.9774 7.63442 37.0144C8.78042 37.6064 10.0074 38.0424 11.1984 38.5494C11.2174 38.7254 11.2364 38.9004 11.2564 39.0764C8.8144 39.8414 7.35541 42.4494 4.19241 42.0434C2.43641 41.8184 1.2754 43.8634 1.9294 45.3774C2.3274 46.3014 3.0024 46.8704 4.0454 46.8734C5.2414 46.8774 6.1274 46.3774 6.6354 45.2474C6.9274 44.5984 7.1394 43.7944 7.6484 43.3864C8.6444 42.5884 9.82341 42.0194 11.2184 41.1794C10.5254 43.6754 9.87741 45.7314 9.39541 47.8254C8.98041 49.6284 9.36342 50.4324 11.1774 50.7454C13.1184 51.0814 15.1504 51.0834 17.1274 50.9644C18.5874 50.8764 20.0214 50.3584 21.5794 50.0074C22.7944 55.2984 26.4644 58.5764 30.3744 61.6794C31.3234 62.4324 32.2194 62.7744 33.3004 61.9284C37.1594 58.9104 40.8734 55.7884 42.2364 50.7704C42.3144 50.4854 42.5514 50.2434 42.7144 49.9834C43.6364 50.2414 44.4334 50.5024 45.2484 50.6854C47.7154 51.2364 50.1924 51.6314 52.6914 50.8514C54.6214 50.2484 55.0054 49.7274 54.5704 47.7614C54.1074 45.6684 53.4814 43.6104 52.7904 41.0264C54.6584 42.6614 57.0904 42.8094 57.5844 45.5054C57.8034 46.6984 59.5884 47.1844 60.7654 46.7334C61.7404 46.3594 62.4694 45.1074 62.2964 44.1044C62.1094 43.0214 60.7174 41.7214 59.5344 42.0224C57.9434 42.4274 56.9754 41.5444 55.8864 40.8574C54.8214 40.1864 53.5024 39.7884 52.8754 38.7194C55.7864 37.2294 58.5944 35.9214 61.2724 34.3894C64.8754 32.3284 64.9244 31.6984 61.6764 29.1344ZM43.9854 14.2614C46.4554 13.8674 48.9344 13.4074 51.3864 14.0744C52.3194 16.8904 51.8144 20.6514 49.7894 22.4884C49.9784 21.2844 50.1914 20.0824 50.3524 18.8744C50.6284 16.7974 50.2624 16.2364 48.2164 16.0844C46.4774 15.9554 44.7204 16.0574 43.0624 16.0574C42.5824 14.8464 43.1464 14.3954 43.9854 14.2614ZM43.1604 17.9334C44.8844 17.6224 46.6144 17.4804 48.5644 18.1394C48.3144 19.5114 48.0814 20.7904 47.8534 22.0394C45.1424 22.4654 42.6074 22.8634 39.8834 23.2914C40.6114 21.7024 41.3164 20.0744 42.1184 18.4954C42.2664 18.2024 42.7824 18.0014 43.1604 17.9334ZM26.9324 5.73838C28.1274 4.57738 29.4494 3.54438 30.7384 2.48338C31.5494 1.81638 32.3904 1.82938 33.2624 2.45338C35.8724 4.32238 38.2404 6.42637 39.7474 9.31937C41.0814 11.8804 41.2714 14.5674 40.4794 17.3524C39.6564 20.2454 37.9994 22.5914 35.6884 24.5934C35.9054 24.1644 36.1094 23.7294 36.3424 23.3094C36.5844 22.8704 36.8694 22.4544 37.1084 22.0144C40.5024 15.7684 39.1884 9.09737 33.7574 4.97038C32.1314 3.73438 31.8974 3.73439 30.2714 4.96339C25.2024 8.79639 23.6864 14.9744 26.3724 20.8884C26.6484 21.4964 26.9754 22.0814 27.2944 22.6694C27.5914 23.2174 27.9084 23.7544 28.2164 24.2964C22.4584 19.3524 20.9334 11.5654 26.9324 5.73838ZM31.9854 37.0374C29.0914 37.0164 26.7124 34.7714 26.7334 32.0804C26.7564 29.1514 28.7754 27.3764 32.0554 27.4004C35.2924 27.4244 37.3754 29.2914 37.3554 32.1524C37.3374 34.7914 34.8454 37.0584 31.9854 37.0374ZM32.3254 55.5404C29.2024 52.5974 29.1084 44.9574 32.1864 40.2624C34.6194 45.5454 34.8084 50.4714 32.3254 55.5404ZM32.1314 9.91438C34.2394 14.5824 33.8924 19.1314 32.1884 24.0524C29.9274 20.4224 29.8504 12.9284 32.1314 9.91438ZM24.1964 23.2664C21.5994 22.8774 19.1034 22.5034 16.2454 22.0754C16.0144 20.9534 15.7404 19.6224 15.4484 18.2054C17.7014 17.3854 19.7134 17.6074 21.6874 18.1504C22.5294 19.8664 23.3324 21.5034 24.1964 23.2664ZM12.2944 14.2744C15.1124 13.2834 17.7924 13.8584 20.4474 14.4344C20.8244 14.5164 21.0804 15.1544 21.7904 16.0194C19.5274 16.0194 17.8924 15.9404 16.2674 16.0374C13.7404 16.1884 13.4194 16.6304 13.7374 19.1514C13.8784 20.2704 14.0644 21.3844 14.2294 22.5004C13.9554 22.5374 13.6814 22.5744 13.4074 22.6124C12.1304 20.0164 12.0284 17.2344 12.2944 14.2744ZM2.21441 31.7184C7.69641 26.7924 13.3994 22.8004 21.3244 24.6084C23.6524 25.1394 25.0294 25.8764 26.7704 27.5754C26.0994 27.5754 25.6544 27.6724 25.2724 27.5584C23.6744 27.0814 22.1114 26.4824 20.5044 26.0364C17.7954 25.2844 15.1444 25.7394 12.6704 26.8934C10.7824 27.7734 9.02341 28.9404 7.24941 30.0464C6.79441 30.3304 6.49641 30.8664 6.13741 31.2734C7.50441 32.7714 11.1194 34.3484 15.2114 35.4554C18.4894 36.3424 21.6434 35.9404 24.7964 34.8304C18.5874 38.8084 9.85441 37.5904 2.21441 31.7184ZM11.3604 48.6984C11.4854 44.2694 13.6774 40.1494 16.8154 39.0844C16.3354 39.9254 15.9324 40.4814 15.6824 41.0994C14.9684 42.8634 14.1314 44.6094 13.6984 46.4464C13.3344 47.9864 13.8914 48.5094 15.4534 48.3064C17.3304 48.0624 19.1724 47.5534 21.3734 47.0864C19.7154 49.2544 14.4154 50.0004 11.3604 48.6984ZM20.9614 44.7764C19.3794 45.6894 17.7134 46.3564 15.6874 46.3004C15.7464 43.8844 17.1534 42.3214 18.2254 40.5764C19.4874 38.5224 21.5514 38.2704 23.8034 37.8194C23.0564 39.9404 22.3904 41.8884 21.6744 43.8184C21.5414 44.1804 21.2814 44.5914 20.9614 44.7764ZM37.2504 55.9244C35.6944 57.5414 33.9744 59.0014 32.4064 60.4614C22.8414 55.7204 20.1994 43.3164 27.2714 37.3084C28.1744 37.9784 27.3354 38.4554 27.0544 38.9354C25.0234 42.4094 24.2454 46.0964 25.2954 50.0274C26.1364 53.1764 27.8094 55.8554 30.3544 57.9374C31.8344 59.1484 32.1454 59.1324 33.6114 57.9934C39.1734 53.6724 40.7824 45.5334 37.2824 39.4284C36.9404 38.8324 36.6074 38.2324 36.2704 37.6344C36.5214 37.4674 36.7714 37.3004 37.0214 37.1334C37.6154 37.9804 38.2624 38.7944 38.7934 39.6784C41.5944 44.3434 42.0054 50.9804 37.2504 55.9244ZM40.1614 37.7594C42.1084 38.3534 44.0184 38.2694 45.2804 39.9774C46.6644 41.8504 48.1654 43.6264 48.4064 46.2824C46.3654 46.4344 44.7074 45.6814 43.1134 44.8034C42.7454 44.6004 42.5094 44.0534 42.3394 43.6164C41.6154 41.7514 40.9404 39.8704 40.1614 37.7594ZM52.8234 48.4874C50.3514 50.0464 44.7114 49.4094 42.5354 47.1124C43.2154 47.1964 43.6534 47.2144 44.0744 47.3084C45.5364 47.6364 46.9774 48.1184 48.4564 48.3004C50.1894 48.5134 50.7424 47.9984 50.3674 46.3524C49.9834 44.6694 49.2394 43.0604 48.5644 41.4564C48.2564 40.7234 47.7374 40.0784 47.2564 39.2994C49.9934 39.6394 51.8324 42.7734 52.8234 48.4874ZM40.1244 35.1624C44.6364 36.8264 48.8774 35.7094 53.0374 34.0384C54.7074 33.3674 56.5164 32.9014 58.1254 31.3534C55.2114 28.6134 52.0644 26.7994 48.3234 25.9554C44.5444 25.1034 41.1524 26.6404 37.7054 27.8964C37.6284 27.7244 37.5514 27.5534 37.4744 27.3814C37.8294 27.0204 38.1254 26.5584 38.5474 26.3134C42.6134 23.9524 46.8964 23.5474 51.3714 24.9624C55.3864 26.2314 58.5074 28.8474 61.8484 31.6504C54.6784 37.3334 45.6524 38.7984 40.1244 35.1624Z" fill="#78716C"/>
</svg>
